<svg width="477" height="477" viewBox="0 0 477 477" fill="none" xmlns="http://www.w3.org/2000/svg">
<path d="M338.56 350.297C337.582 350.297 336.612 350.489 335.708 350.864C334.803 351.238 333.982 351.787 333.29 352.479C332.597 353.171 332.048 353.993 331.674 354.898C331.3 355.802 331.107 356.771 331.107 357.75V417.375C331.103 421.327 329.531 425.116 326.736 427.91C323.942 430.705 320.153 432.277 316.201 432.281H123.162C119.21 432.277 115.421 430.705 112.627 427.91C109.832 425.116 108.26 421.327 108.256 417.375V59.625C108.26 55.673 109.832 51.8842 112.627 49.0897C115.421 46.2952 119.21 44.7233 123.162 44.7188H162.14L167.895 61.9832C168.389 63.4671 169.337 64.7579 170.606 65.6724C171.875 66.587 173.399 67.0788 174.963 67.0781H264.4C265.964 67.0788 267.488 66.5869 268.757 65.6724C270.026 64.7579 270.974 63.4671 271.468 61.9832L277.223 44.7188H316.201C320.153 44.7233 323.942 46.2952 326.736 49.0897C329.531 51.8842 331.103 55.673 331.107 59.625V119.25C331.107 121.227 331.892 123.122 333.29 124.52C334.688 125.918 336.584 126.703 338.56 126.703C340.537 126.703 342.433 125.918 343.83 124.52C345.228 123.122 346.013 121.227 346.013 119.25V59.625C346.005 51.7208 342.861 44.1428 337.272 38.5537C331.683 32.9646 324.105 29.8209 316.201 29.8125H123.162C115.258 29.8209 107.68 32.9646 102.091 38.5537C96.5017 44.1428 93.358 51.7208 93.3496 59.625V417.375C93.358 425.279 96.5017 432.857 102.091 438.446C107.68 444.035 115.258 447.179 123.162 447.188H316.201C324.105 447.179 331.683 444.035 337.272 438.446C342.861 432.857 346.005 425.279 346.013 417.375V357.75C346.014 356.771 345.821 355.802 345.447 354.898C345.072 353.993 344.523 353.171 343.831 352.479C343.139 351.787 342.317 351.238 341.413 350.864C340.508 350.489 339.539 350.297 338.56 350.297ZM261.514 44.7188L259.029 52.1719H180.334L177.849 44.7188H261.514Z" fill="#7F5268"/>
<path d="M189.869 402.469C187.892 402.469 185.997 403.254 184.599 404.652C183.201 406.049 182.416 407.945 182.416 409.922C182.416 411.899 183.201 413.794 184.599 415.192C185.997 416.59 187.892 417.375 189.869 417.375H249.494C251.471 417.375 253.367 416.59 254.764 415.192C256.162 413.794 256.947 411.899 256.947 409.922C256.947 407.945 256.162 406.049 254.764 404.652C253.367 403.254 251.471 402.469 249.494 402.469H189.869Z" fill="#7F5268"/>
<path d="M281.439 163.969C281.433 158.041 279.075 152.357 274.883 148.165C270.691 143.974 265.008 141.616 259.08 141.609H212.229C206.3 141.616 200.617 143.974 196.425 148.165C192.233 152.357 189.876 158.041 189.869 163.969V210.816C189.876 216.745 192.233 222.428 196.425 226.62C200.617 230.812 206.3 233.169 212.229 233.176H259.08C265.008 233.169 270.691 230.812 274.883 226.62C279.075 222.428 281.433 216.745 281.439 210.816V163.969ZM266.533 210.816C266.531 212.793 265.745 214.687 264.348 216.084C262.951 217.482 261.056 218.268 259.08 218.27H212.229C210.252 218.268 208.358 217.482 206.961 216.084C205.563 214.687 204.777 212.793 204.775 210.816V163.969C204.777 161.993 205.563 160.098 206.961 158.701C208.358 157.303 210.252 156.518 212.229 156.516H259.08C261.056 156.518 262.951 157.303 264.348 158.701C265.745 160.098 266.531 161.993 266.533 163.969V210.816Z" fill="#7F5268"/>
<path d="M361.291 141.609H314.439C308.511 141.616 302.828 143.974 298.636 148.165C294.444 152.357 292.087 158.041 292.08 163.969V210.816C292.087 216.745 294.444 222.428 298.636 226.62C302.828 230.812 308.511 233.169 314.439 233.176H361.291C367.219 233.169 372.902 230.812 377.094 226.62C381.286 222.428 383.643 216.745 383.65 210.816V163.969C383.643 158.041 381.286 152.357 377.094 148.165C372.902 143.974 367.219 141.616 361.291 141.609ZM368.744 210.816C368.742 212.793 367.956 214.687 366.559 216.084C365.161 217.482 363.267 218.268 361.291 218.27H314.439C312.463 218.268 310.569 217.482 309.171 216.084C307.774 214.687 306.988 212.793 306.986 210.816V163.969C306.988 161.993 307.774 160.098 309.171 158.701C310.569 157.303 312.463 156.518 314.439 156.516H361.291C363.267 156.518 365.161 157.303 366.559 158.701C367.956 160.098 368.742 161.993 368.744 163.969V210.816Z" fill="#7F5268"/>
<path d="M281.439 313.031V266.184C281.433 260.256 279.075 254.572 274.883 250.38C270.691 246.188 265.008 243.831 259.08 243.824H212.229C206.3 243.831 200.617 246.188 196.425 250.38C192.233 254.572 189.876 260.256 189.869 266.184V313.031C189.876 318.959 192.233 324.643 196.425 328.835C200.617 333.026 206.3 335.384 212.229 335.391H259.08C265.008 335.384 270.691 333.026 274.883 328.835C279.075 324.643 281.433 318.959 281.439 313.031ZM204.775 313.031V266.184C204.777 264.208 205.563 262.313 206.961 260.916C208.358 259.518 210.252 258.732 212.229 258.73H259.08C261.056 258.732 262.951 259.518 264.348 260.916C265.745 262.313 266.531 264.208 266.533 266.184V313.031C266.531 315.007 265.745 316.902 264.348 318.299C262.951 319.697 261.056 320.482 259.08 320.484H212.229C210.252 320.482 208.358 319.697 206.961 318.299C205.563 316.902 204.777 315.007 204.775 313.031Z" fill="#7F5268"/>
<path d="M361.291 243.824H314.439C308.511 243.831 302.828 246.188 298.636 250.38C294.444 254.572 292.087 260.256 292.08 266.184V313.031C292.087 318.959 294.444 324.643 298.636 328.835C302.828 333.026 308.511 335.384 314.439 335.391H361.291C367.219 335.384 372.902 333.026 377.094 328.835C381.286 324.643 383.643 318.959 383.65 313.031V266.184C383.643 260.256 381.286 254.572 377.094 250.38C372.902 246.188 367.219 243.831 361.291 243.824ZM368.744 313.031C368.742 315.007 367.956 316.902 366.559 318.299C365.161 319.697 363.267 320.482 361.291 320.484H314.439C312.463 320.482 310.569 319.697 309.171 318.299C307.774 316.902 306.988 315.007 306.986 313.031V266.184C306.988 264.208 307.774 262.313 309.171 260.916C310.569 259.518 312.463 258.732 314.439 258.73H361.291C363.267 258.732 365.161 259.518 366.559 260.916C367.956 262.313 368.742 264.208 368.744 266.184V313.031Z" fill="#7F5268"/>
</svg>
