<svg preserveAspectRatio="none" width="100%" height="100%" overflow="visible" style="display: block;" viewBox="0 0 257.18 45.6617" fill="none" xmlns="http://www.w3.org/2000/svg">
<path id="Vector (Stroke)" d="M201.517 0.91496C203.202 0.208522 205.558 0.426045 206.78 1.40004C213.749 6.95405 222.032 11.7633 231.462 15.4163L232.82 15.9344C236.021 17.1333 239.414 18.2579 242.737 19.1119C246.582 20.1001 250.064 20.6544 252.912 20.6544C254.993 20.6544 256.68 21.6299 256.68 22.833C256.68 24.0362 254.993 25.0116 252.912 25.0116C250.064 25.0116 246.58 25.5669 242.733 26.5551C239.41 27.4091 236.017 28.5331 232.82 29.7316L231.464 30.2496C222.032 33.9079 213.747 38.7184 206.778 44.2638C205.555 45.2368 203.199 45.4526 201.515 44.7457C199.831 44.0385 199.458 42.6757 200.682 41.7022C208.094 35.8046 216.995 30.6138 227.265 26.6307C228.673 26.085 230.148 25.5393 231.667 25.0116L72.0149 25.094C32.536 25.0492 0.497407 25.9586 0.5 22.7931C0.502593 19.6276 32.4748 20.6095 71.9508 20.6542L231.668 20.6544C230.15 20.1269 228.675 19.5817 227.267 19.0364C216.995 15.0575 208.093 9.86557 200.68 3.95736C199.458 2.98339 199.832 1.62136 201.517 0.91496Z" fill="var(--fill-0, #7F5268)" stroke="var(--stroke-0, white)" stroke-linecap="round" stroke-linejoin="round"/>
</svg>
