<svg preserveAspectRatio="none" width="100%" height="100%" overflow="visible" style="display: block;" viewBox="0 0 130 47.9995" fill="none" xmlns="http://www.w3.org/2000/svg">
<path id="Vector (Stroke)" d="M91.736 0.936445C92.8894 0.193022 94.5023 0.421933 95.3389 1.44692C100.109 7.29172 105.78 12.3527 112.236 16.197L113.166 16.7422C115.357 18.0039 117.68 19.1874 119.955 20.0861C122.587 21.1261 124.971 21.7093 126.92 21.7093C128.345 21.7093 129.5 22.7359 129.5 24.002C129.5 25.2682 128.345 26.2947 126.92 26.2947C124.971 26.2947 122.585 26.879 119.952 27.919C117.677 28.8177 115.354 30.0005 113.166 31.2617L112.237 31.8069C105.78 35.6568 100.109 40.7191 95.3377 46.5548C94.5001 47.5788 92.8873 47.8059 91.7347 47.0619C90.582 46.3177 90.3266 44.8835 91.1641 43.8591C96.2382 37.6527 102.332 32.1902 109.363 27.9985C110.326 27.4242 111.336 26.85 112.376 26.2947H3.08C1.65511 26.2947 0.5 25.2682 0.5 24.002C0.500168 22.7359 1.65521 21.7093 3.08 21.7093H112.377C111.338 21.1542 110.328 20.5805 109.364 20.0066C102.332 15.8194 96.2375 10.3557 91.1628 4.13813C90.3264 3.11316 90.5827 1.67983 91.736 0.936445Z" fill="var(--fill-0, #7F5268)" stroke="var(--stroke-0, white)" stroke-linecap="round" stroke-linejoin="round"/>
</svg>
