<svg preserveAspectRatio="none" width="100%" height="100%" overflow="visible" style="display: block;" viewBox="0 0 103.131 48.0012" fill="none" xmlns="http://www.w3.org/2000/svg">
<path id="Vector (Stroke)" d="M72.733 0.937326C73.6462 0.193903 74.9232 0.422813 75.5855 1.4478C79.3624 7.2926 83.8519 12.3536 88.9633 16.1979L89.6994 16.7431C91.4339 18.0048 93.2733 19.1882 95.0743 20.087C97.1583 21.1269 99.0455 21.7102 100.589 21.7102C101.717 21.7102 102.631 22.7368 102.631 24.0029C102.631 25.2691 101.717 26.2955 100.589 26.2955C99.0454 26.2955 97.1568 26.8799 95.0723 27.9199C93.2711 28.8185 91.4319 30.0014 89.6994 31.2626L88.9643 31.8078C83.852 35.6576 79.3618 40.72 75.5845 46.5557C74.9214 47.5797 73.6446 47.8068 72.732 47.0628C71.8193 46.3186 71.6171 44.8844 72.2802 43.86C76.2975 37.6536 81.122 32.191 86.6883 27.9994C87.4512 27.4251 88.2508 26.8509 89.074 26.2955H2.54263C1.41452 26.2955 0.5 25.2691 0.5 24.0029C0.500133 22.7368 1.4146 21.7102 2.54263 21.7102H89.075C88.252 21.1551 87.4525 20.5814 86.6893 20.0075C81.122 15.8203 76.297 10.3565 72.2792 4.13901C71.617 3.11404 71.8199 1.68071 72.733 0.937326Z" fill="var(--fill-0, #7F5268)" stroke="var(--stroke-0, white)" stroke-linecap="round" stroke-linejoin="round"/>
</svg>
