<svg width="370" height="512" viewBox="0 0 370 512" fill="none" xmlns="http://www.w3.org/2000/svg">
<path fill-rule="evenodd" clip-rule="evenodd" d="M181.376 253C133.376 253 93.3756 203 88.3756 137C83.3756 86 90.3756 67 91.3756 64C107.376 26 145.376 0 187.376 0C214.376 0 238.376 11 254.376 30C269.376 47 284.376 80 275.376 136C274.376 145 273.376 154 271.376 162C270.376 165 268.376 167 266.376 167C243.376 175 228.376 199 228.376 227V232C228.376 235 227.376 237 225.376 238C212.376 248 196.376 253 181.376 253ZM104.376 70C104.376 71 97.3756 88 102.376 136C104.376 164 114.376 191 129.376 210C143.376 229 162.376 239 181.376 239C193.376 239 203.376 236 214.376 229C214.376 229 214.376 228 214.376 227C214.376 195 232.376 166 258.376 156C259.376 149 260.376 141 261.376 134C268.376 93 262.376 61 243.376 39C230.376 23 209.376 14 187.376 14C150.376 14 117.376 36 104.376 69V70Z" fill="#7F5268"/>
<path fill-rule="evenodd" clip-rule="evenodd" d="M116.375 143H95.375C91.375 143 88.375 140 88.375 136C88.375 132 91.375 129 95.375 129H109.375C109.375 112 117.375 98 131.375 87C144.375 77 161.375 70 178.375 64C209.375 52 228.375 44 226.375 21C225.375 18 228.375 14 232.375 14C236.375 13 239.375 16 240.375 20C241.375 36 236.375 48 223.375 58C212.375 66 198.375 71 183.375 77C151.375 89 121.375 100 123.375 136C123.375 138 122.375 139 121.375 141C119.375 142 118.375 143 116.375 143Z" fill="#7F5268"/>
<path fill-rule="evenodd" clip-rule="evenodd" d="M268.375 144H248.375C246.375 144 244.375 143 243.375 142C241.375 141 241.375 139 241.375 137C243.375 106 218.375 66 212.375 57C210.375 54 210.375 50 213.375 47C217.375 45 221.375 46 223.375 49C230.375 58 254.375 97 255.375 130H268.375C272.375 130 275.375 133 275.375 137C275.375 141 272.375 144 268.375 144Z" fill="#7F5268"/>
<path fill-rule="evenodd" clip-rule="evenodd" d="M208.375 512C189.375 512 169.375 509 149.375 503C148.375 503 146.375 503 145.375 504C122.375 506 104.375 507 93.3752 507H92.3752C91.3752 507 91.3752 507 90.3752 507C61.3752 507 30.3752 482 23.3752 454C21.3752 443 19.3752 433 16.3752 422C11.3752 401 6.3752 379 2.3752 357C-2.6248 331 0.375198 311 10.3752 298C22.3752 283 39.3752 281 41.3752 281C102.375 278 121.375 259 124.375 254V224C124.375 220 128.375 217 131.375 217C135.375 217 138.375 220 138.375 224V256V259C136.375 262 120.375 291 42.3752 295C41.3752 295 29.3752 296 21.3752 306C13.3752 317 11.3752 333 16.3752 355C20.3752 376 25.3752 398 30.3752 419C32.3752 430 35.3752 440 37.3752 451C42.3752 473 68.3752 494 91.3752 493H92.3752C103.375 493 121.375 492 143.375 490C145.375 490 146.375 489 147.375 489H148.375H149.375C219.375 480 303.375 453 308.375 372V283C308.375 281 309.375 279 310.375 278C312.375 277 314.375 276 316.375 276C348.375 279 368.375 304 369.375 340C369.375 400 347.375 450 306.375 481C285.375 496 261.375 506 234.375 510C226.375 511 217.375 512 208.375 512ZM188.375 497C229.375 501 268.375 492 297.375 469C335.375 441 355.375 395 355.375 340C354.375 320 346.375 298 322.375 292V372V373C318.375 436 272.375 478 188.375 497Z" fill="#7F5268"/>
<path fill-rule="evenodd" clip-rule="evenodd" d="M169.375 457C158.375 457 148.375 456 139.375 454C119.375 449 103.375 440 92.3751 426C80.3751 411 74.3751 390 76.3751 366C76.3751 362 79.3751 359 83.3751 359C87.3751 359 90.3751 363 90.3751 366C87.3751 417 117.375 435 142.375 440C151.375 442 160.375 443 169.375 443C225.375 443 291.375 410 309.375 368C310.375 364 314.375 362 318.375 364C321.375 365 323.375 370 322.375 373C310.375 400 282.375 425 245.375 441C220.375 452 193.375 457 169.375 457Z" fill="#7F5268"/>
<path fill-rule="evenodd" clip-rule="evenodd" d="M280.375 303C243.375 303 214.375 269 214.375 227C214.375 185 243.375 151 280.375 151C317.375 151 347.375 185 347.375 227C347.375 269 317.375 303 280.375 303ZM280.375 165C251.375 165 228.375 193 228.375 227C228.375 261 251.375 289 280.375 289C309.375 289 333.375 261 333.375 227C333.375 193 309.375 165 280.375 165Z" fill="#7F5268"/>
<path fill-rule="evenodd" clip-rule="evenodd" d="M256.375 319C249.375 319 242.375 318 233.375 315C230.375 313 226.375 312 223.375 311C194.375 302 164.375 293 125.375 227C123.375 224 125.375 220 128.375 218C131.375 216 136.375 217 137.375 220C173.375 281 201.375 290 227.375 298C230.375 299 234.375 300 238.375 301C250.375 306 259.375 306 265.375 303C268.375 302 270.375 299 271.375 295C272.375 291 275.375 289 279.375 289C283.375 290 285.375 294 284.375 298C282.375 306 278.375 312 271.375 316C267.375 318 262.375 319 256.375 319Z" fill="#7F5268"/>
<path fill-rule="evenodd" clip-rule="evenodd" d="M191.375 456C188.375 456 185.375 454 184.375 451C176.375 427 179.375 401 193.375 375C199.375 365 204.375 358 209.375 352C193.375 347 177.375 335 162.375 318C147.375 302 134.375 280 125.375 259C124.375 255 125.375 251 129.375 250C132.375 248 137.375 250 138.375 253C154.375 292 187.375 336 223.375 341C226.375 341 228.375 343 229.375 346C230.375 349 229.375 351 227.375 353C227.375 354 180.375 397 197.375 446C199.375 450 197.375 454 193.375 455C192.375 456 192.375 456 191.375 456Z" fill="#7F5268"/>
<path fill-rule="evenodd" clip-rule="evenodd" d="M91.375 288C89.375 288 87.375 287 86.375 285C83.375 283 83.375 278 86.375 275C95.375 267 100.375 220 102.375 190C102.375 186 105.375 183 109.375 183C113.375 183 116.375 187 116.375 190C116.375 191 115.375 210 112.375 231C107.375 271 100.375 281 96.375 286C94.375 287 93.375 288 91.375 288Z" fill="#7F5268"/>
</svg>
