<svg width="146" height="122" viewBox="0 0 146 122" fill="none" xmlns="http://www.w3.org/2000/svg">
<path d="M136.447 2.5C138.545 5.16213 143.974 16.1087 143.468 29.306C142.932 43.2876 119.268 55.1671 97.001 59.9057C92.8521 60.7887 77.9587 50.0479 78.001 48C78.0432 45.9521 82.1178 34.8965 83.501 33.5C84.8841 32.1035 100.365 28.2869 102.001 28.5C108.519 29.3492 115.334 48.1911 118.881 59.9057C124.351 77.9729 117.688 93.1089 112.524 104.288C109.978 109.8 98.1001 110.783 76.7636 112.614C42.2338 113.237 19.3659 113.536 14.5907 114.807C11.5543 115.779 7.27306 117.416 2.50098 119.5" stroke="#7F5268" stroke-width="5" stroke-linecap="round" stroke-dasharray="15 15"/>
</svg>
