<svg width="302" height="104" viewBox="0 0 302 104" fill="none" xmlns="http://www.w3.org/2000/svg">
<path d="M2.50098 2.50073C5.56406 9.61741 17.19 30.1829 27.6208 39.1882C34.3213 44.973 52.065 47.4481 79.7673 52.0283C117.233 58.2227 141.928 56.2718 146.492 54.741C148.981 53.9059 151.34 51.935 152.803 49.8596C154.266 47.7842 154.639 45.4039 154.64 43.4405C154.642 41.4771 154.261 40.0028 152.987 38.6399C147.14 32.3859 138.913 33.8928 135.305 34.7948C133.54 35.236 126.859 42.6554 126.385 45.0022C123.747 58.0749 139.124 72.9595 156.565 78.324C173.288 83.4675 220.144 83.484 244.381 85.8988C255.027 86.9593 261.719 93.8581 267.367 97.5615C274.925 100.845 282.913 101.829 287.395 101.41C290.134 100.991 293.818 100.153 299.501 99.29" stroke="#7F5268" stroke-width="5" stroke-linecap="round" stroke-dasharray="15 15"/>
</svg>
