<svg width="292" height="176" viewBox="0 0 292 176" fill="none" xmlns="http://www.w3.org/2000/svg">
<path d="M289.498 2.5C288.912 2.5 277.083 4.24033 256.5 7.91846C247.396 9.5452 241.208 11.9388 234.762 14.8773C221.594 20.8799 213.036 27.3888 209.191 31.4951C205.736 35.1843 208.647 43.1003 206.068 44.8138C196.365 51.2596 197.777 49.266 186.141 49.7937C172.614 50.4071 163.825 54.5988 159.949 56.28C149.803 60.6804 142.88 68.8092 137.487 76.1738C132.502 82.9807 127.364 90.3845 121.538 95.9496C109.217 107.718 97.6157 109.963 88.8068 111.077C77.4931 112.507 69.2751 103.283 66.6829 100.049C65.2876 98.3086 65.2662 95.6394 65.4944 93.4554C65.6033 92.4125 66.1788 91.6031 67.0947 90.7555C69.2006 88.8065 72.1684 81.5975 77.3469 81.8929C81.1653 82.1106 89.3951 86.8249 90.6957 88.5066C92.1865 90.4343 94.9938 97.8401 95.4632 102.395C96.1721 109.276 85.289 114.502 82.5552 117.882C81.4367 119.265 78.5214 120.781 72.2567 123.704C62.161 128.414 49.8575 131.873 40.5025 134C33.7044 135.546 29.0315 137.486 20.6601 142.272C11.53 147.493 7.27753 155.702 4.14071 162.42C3.4456 164.121 3.02654 165.393 2.77187 167.135C2.51719 168.878 2.43959 171.053 2.54149 173.5" stroke="#7F5268" stroke-width="5" stroke-linecap="round" stroke-dasharray="15 15"/>
</svg>
