<svg width="448" height="403" viewBox="0 0 448 403" fill="none" xmlns="http://www.w3.org/2000/svg">
<path d="M303.469 286.281C291.169 286.26 279.26 281.956 269.789 274.109C263.613 278.437 256.582 281.393 249.169 282.776C241.755 284.159 234.131 283.938 226.81 282.127C219.489 280.316 212.641 276.958 206.727 272.279C200.813 267.6 195.97 261.708 192.524 255C182.261 256.394 171.816 254.726 162.498 250.206C153.18 245.686 145.403 238.516 140.145 229.594C135.752 230.432 131.289 230.856 126.817 230.859C109.525 230.858 92.7983 224.703 79.6307 213.495C66.463 202.287 57.7143 186.759 54.9507 169.689C52.1871 152.62 55.589 135.124 64.5475 120.334C73.5059 105.544 87.436 94.4252 103.844 88.9682C102.559 83.5595 101.909 78.0195 101.907 72.4603C103.438 -9.81119 215.976 -27.9848 243.625 49.0158C252.391 46.5248 261.646 46.3034 270.521 48.3723C279.396 50.4412 287.599 54.7324 294.36 60.8428C324.28 21.3645 389.511 43.4361 389.016 93.2583C389.015 98.2903 388.294 103.296 386.876 108.124C396.695 109.758 406.074 113.388 414.434 118.791C422.795 124.194 429.958 131.254 435.481 139.536C441.004 147.817 444.769 157.143 446.544 166.938C448.32 176.732 448.067 186.787 445.802 196.48C443.536 206.173 439.307 215.298 433.375 223.291C427.442 231.285 419.934 237.976 411.312 242.952C402.691 247.928 393.141 251.082 383.252 252.22C373.363 253.359 363.346 252.456 353.82 249.569C350.388 260.226 343.665 269.521 334.618 276.118C325.571 282.714 314.666 286.272 303.469 286.281ZM270.211 255.476C271.328 255.477 272.432 255.711 273.453 256.163C274.474 256.615 275.389 257.275 276.141 258.101C280.874 263.355 287.02 267.136 293.843 268.991C300.667 270.846 307.881 270.697 314.623 268.563C321.365 266.428 327.349 262.398 331.862 256.953C336.374 251.508 339.224 244.88 340.071 237.859C340.224 236.61 340.669 235.414 341.37 234.369C342.071 233.324 343.009 232.459 344.107 231.845C345.205 231.23 346.432 230.882 347.69 230.831C348.947 230.779 350.199 231.024 351.344 231.546C358.735 234.952 366.776 236.716 374.914 236.718C449.823 234.095 450.202 126.29 375.257 123.14C373.872 123.116 372.517 122.735 371.322 122.035C370.127 121.334 369.133 120.337 368.436 119.14C367.738 117.944 367.361 116.587 367.341 115.202C367.321 113.817 367.659 112.45 368.321 111.234C370.743 106.908 372.268 102.138 372.805 97.2089C373.342 92.2801 372.879 87.2937 371.445 82.5477C370.011 77.8017 367.634 73.3937 364.458 69.587C361.281 65.7803 357.37 62.6532 352.957 60.3926C348.544 58.1321 343.721 56.7844 338.776 56.4302C333.831 56.0761 328.865 56.7226 324.175 58.3313C319.485 59.94 315.168 62.4778 311.482 65.7929C307.795 69.1081 304.815 73.1325 302.719 77.6257C302.123 78.8981 301.201 79.9906 300.048 80.7929C298.894 81.5952 297.549 82.0789 296.149 82.1951C294.744 82.3364 293.328 82.0933 292.051 81.492C290.774 80.8906 289.684 79.9536 288.899 78.7811C283.81 71.4618 276.248 66.2277 267.606 64.0428C258.964 61.8578 249.823 62.8692 241.867 66.8907C240.766 67.4492 239.55 67.7454 238.315 67.7561C237.08 67.7668 235.86 67.4916 234.749 66.9522C233.638 66.4128 232.667 65.6237 231.911 64.6466C231.156 63.6696 230.637 62.5311 230.395 61.3201C227.63 47.4998 219.826 35.2012 208.499 26.8146C197.171 18.4279 183.13 14.5525 169.105 15.9416C155.079 17.3307 142.072 23.8849 132.609 34.3305C123.147 44.7761 117.907 58.3667 117.907 72.4607C115.93 82.049 128.737 98.7043 115.451 102.406C49.1764 117.315 58.6611 213.477 126.818 214.859C134.792 216.332 146.894 207.394 151.751 217.202C155.206 225.384 161.524 232.026 169.523 235.885C177.522 239.745 186.653 240.558 195.207 238.171C197.145 237.647 199.209 237.874 200.988 238.805C202.766 239.736 204.128 241.304 204.801 243.195C206.905 248.918 210.389 254.035 214.943 258.09C219.497 262.145 224.982 265.014 230.91 266.443C236.838 267.871 243.028 267.815 248.929 266.28C254.831 264.744 260.262 261.776 264.743 257.639C266.225 256.25 268.18 255.476 270.211 255.476Z" fill="#7F5268"/>
<path d="M97.7583 339.913C47.3532 338.312 47.365 265.226 97.7591 263.632C148.163 265.234 148.151 338.32 97.7583 339.913ZM97.7583 279.632C91.9287 279.697 86.3599 282.058 82.2605 286.203C78.1611 290.348 75.8619 295.943 75.862 301.773C75.8621 307.603 78.1614 313.198 82.2609 317.343C86.3604 321.488 91.9293 323.849 97.7589 323.913C103.588 323.849 109.157 321.487 113.257 317.342C117.356 313.197 119.655 307.602 119.655 301.772C119.655 295.942 117.356 290.348 113.256 286.203C109.157 282.058 103.588 279.697 97.7583 279.632Z" fill="#7F5268"/>
<path d="M31.5703 402.304C23.1709 402.227 15.1416 398.837 9.22923 392.87C3.31687 386.904 -9.49122e-05 378.844 2.03691e-09 370.444C9.49163e-05 362.044 3.31725 353.984 9.22974 348.018C15.1422 342.052 23.1717 338.661 31.5711 338.585C39.9705 338.662 47.9998 342.052 53.9122 348.018C59.8245 353.985 63.1415 362.045 63.1414 370.445C63.1413 378.844 59.8242 386.904 53.9117 392.871C47.9992 398.837 39.9697 402.227 31.5703 402.304ZM31.5703 354.585C27.4042 354.646 23.4292 356.343 20.5045 359.311C17.5799 362.279 15.9404 366.278 15.9405 370.445C15.9406 374.611 17.5802 378.611 20.505 381.578C23.4298 384.546 27.4049 386.243 31.5711 386.304C35.7353 386.24 39.7076 384.541 42.6299 381.574C45.5523 378.607 47.1902 374.609 47.1902 370.444C47.1901 366.279 45.5519 362.282 42.6294 359.315C39.7069 356.347 35.7346 354.648 31.5703 354.585Z" fill="#7F5268"/>
<path d="M250.867 192.351C249.652 192.316 248.458 192.017 247.369 191.475C246.281 190.932 245.323 190.16 244.562 189.211C243.801 188.263 243.255 187.16 242.963 185.979C242.67 184.799 242.638 183.569 242.867 182.374C242.746 175.331 244.39 168.369 247.648 162.123C250.907 155.878 255.677 150.547 261.523 146.617C264.459 144.766 266.862 142.181 268.494 139.117C270.126 136.054 270.93 132.618 270.828 129.148C270.726 125.679 269.721 122.296 267.912 119.333C266.103 116.371 263.553 113.932 260.513 112.256C257.473 110.581 254.049 109.727 250.578 109.779C247.108 109.832 243.711 110.788 240.723 112.555C237.735 114.321 235.26 116.836 233.541 119.852C231.822 122.867 230.919 126.279 230.922 129.75C230.88 131.844 230.019 133.838 228.523 135.304C227.027 136.77 225.016 137.591 222.921 137.591C220.827 137.591 218.816 136.77 217.32 135.303C215.825 133.837 214.964 131.843 214.922 129.749C214.92 123.498 216.548 117.355 219.645 111.925C222.742 106.495 227.201 101.966 232.582 98.7853C237.963 95.6046 244.081 93.8818 250.331 93.7869C256.581 93.6919 262.748 95.2281 268.224 98.244C273.699 101.26 278.294 105.651 281.554 110.984C284.814 116.318 286.628 122.409 286.816 128.657C287.004 134.905 285.559 141.094 282.625 146.614C279.691 152.134 275.369 156.793 270.085 160.132C266.512 162.614 263.615 165.947 261.656 169.831C259.697 173.715 258.739 178.027 258.867 182.375C259.097 183.569 259.064 184.799 258.771 185.979C258.479 187.16 257.933 188.263 257.172 189.211C256.412 190.16 255.454 190.932 254.365 191.474C253.276 192.017 252.083 192.316 250.867 192.351Z" fill="#7F5268"/>
<path d="M257.849 205.032C257.814 206.861 257.063 208.604 255.757 209.886C254.45 211.167 252.693 211.885 250.863 211.885C249.034 211.885 247.277 211.167 245.97 209.885C244.664 208.604 243.913 206.861 243.878 205.031C243.913 203.202 244.664 201.459 245.971 200.177C247.277 198.896 249.034 198.178 250.864 198.178C252.694 198.178 254.451 198.896 255.757 200.178C257.063 201.459 257.814 203.202 257.849 205.032Z" fill="#7F5268"/>
</svg>
