<svg preserveAspectRatio="none" width="100%" height="100%" overflow="visible" style="display: block;" viewBox="0 0 1572 267" fill="none" xmlns="http://www.w3.org/2000/svg">
<g id="&#215;&#144;&#215;&#158;&#215;&#144; &#215;&#145;&#215;&#161;&#215;&#147;&#215;&#168;">
<path id="Vector" d="M1572 262.623H1507.01L1438.26 135.251C1431.98 141.816 1428.53 153.197 1428.53 170.267V262.623H1369.19V164.139C1369.19 124.746 1380.49 96.7328 1409.69 80.9754L1367.62 3.50164V0H1429.47L1490.37 111.177C1500.73 99.7967 1503.87 85.3525 1503.87 68.7197V0H1562.9V78.3492C1562.9 126.059 1540.61 152.321 1519.26 163.702L1572 259.559V262.623Z" fill="url(#paint0_linear_421_1382)" fill-opacity="0.8"/>
<path id="Vector_2" d="M1253.87 264.374C1240.06 264.811 1229.7 263.498 1219.34 260.872L1228.13 186.025C1231.27 186.9 1234.41 187.338 1238.17 187.338C1255.13 187.338 1269.88 182.523 1269.88 141.379L1269.57 72.2213H1251.36C1231.58 72.2213 1220.28 85.3525 1212.43 120.369L1181.66 262.623H1122.33L1165.97 98.9213C1181.98 33.7033 1217.45 0 1261.72 0H1326.71C1327.96 40.7066 1328.59 87.541 1328.59 137.439C1328.59 216.664 1302.22 262.623 1253.87 264.374ZM1157.8 150.133L1117.93 0H1172.56L1199.87 106.8L1157.8 150.133Z" fill="url(#paint1_linear_421_1382)" fill-opacity="0.8"/>
<path id="Vector_3" d="M1090.84 262.623H1025.86L957.103 135.251C950.824 141.816 947.371 153.197 947.371 170.267V262.623H888.036V164.139C888.036 124.746 899.338 96.7328 928.534 80.9754L886.466 3.50164V0H948.313L1009.22 111.177C1019.58 99.7967 1022.72 85.3525 1022.72 68.7197V0H1081.74V78.3492C1081.74 126.059 1059.45 152.321 1038.1 163.702L1090.84 259.559V262.623Z" fill="url(#paint2_linear_421_1382)" fill-opacity="0.8"/>
<path id="Vector_4" d="M764.274 262.623H594.43V185.587H685.16V118.618C685.16 89.2918 675.427 75.2852 652.823 75.2852H594.43V0H679.823C722.833 0 744.495 41.582 744.495 92.3557V185.587H764.274V262.623Z" fill="url(#paint3_linear_421_1382)" fill-opacity="0.8"/>
<path id="Vector_5" d="M469.145 267C401.019 267 373.706 209.661 373.706 137.002V0H480.133C542.922 0 565.84 53.8377 565.84 130.874C565.84 221.041 530.992 267 469.145 267ZM469.459 194.341C496.458 194.341 507.76 172.018 508.074 130.436C508.074 110.302 505.249 95.4197 498.97 85.7902C493.319 77.0361 485.156 72.2213 473.54 72.2213H433.355V133.062C433.355 175.52 444.971 194.341 469.459 194.341Z" fill="url(#paint4_linear_421_1382)" fill-opacity="0.8"/>
<path id="Vector_6" d="M309.483 262.623H251.403V75.2852H175.429V0H340.563V75.2852H309.483V262.623Z" fill="url(#paint5_linear_421_1382)" fill-opacity="0.8"/>
<path id="Vector_7" d="M148.496 262.623H89.1602V122.557C89.1602 92.3558 80.6837 75.2852 59.3355 75.2852H0V0H78.1722C124.322 0 148.496 39.3934 148.496 96.2951V262.623Z" fill="url(#paint6_linear_421_1382)" fill-opacity="0.8"/>
</g>
<defs>
<linearGradient id="paint0_linear_421_1382" x1="786.045" y1="-183.836" x2="786.045" y2="388.098" gradientUnits="userSpaceOnUse">
<stop offset="0.55" stop-color="#7F5268"/>
<stop offset="0.8" stop-color="#F7EDE2" stop-opacity="0"/>
</linearGradient>
<linearGradient id="paint1_linear_421_1382" x1="786.045" y1="-183.836" x2="786.045" y2="388.098" gradientUnits="userSpaceOnUse">
<stop offset="0.55" stop-color="#7F5268"/>
<stop offset="0.8" stop-color="#F7EDE2" stop-opacity="0"/>
</linearGradient>
<linearGradient id="paint2_linear_421_1382" x1="786.045" y1="-183.836" x2="786.045" y2="388.098" gradientUnits="userSpaceOnUse">
<stop offset="0.55" stop-color="#7F5268"/>
<stop offset="0.8" stop-color="#F7EDE2" stop-opacity="0"/>
</linearGradient>
<linearGradient id="paint3_linear_421_1382" x1="786.046" y1="-183.836" x2="786.046" y2="388.098" gradientUnits="userSpaceOnUse">
<stop offset="0.55" stop-color="#7F5268"/>
<stop offset="0.8" stop-color="#F7EDE2" stop-opacity="0"/>
</linearGradient>
<linearGradient id="paint4_linear_421_1382" x1="786.045" y1="-183.836" x2="786.045" y2="388.098" gradientUnits="userSpaceOnUse">
<stop offset="0.55" stop-color="#7F5268"/>
<stop offset="0.8" stop-color="#F7EDE2" stop-opacity="0"/>
</linearGradient>
<linearGradient id="paint5_linear_421_1382" x1="786.046" y1="-183.836" x2="786.046" y2="388.098" gradientUnits="userSpaceOnUse">
<stop offset="0.55" stop-color="#7F5268"/>
<stop offset="0.8" stop-color="#F7EDE2" stop-opacity="0"/>
</linearGradient>
<linearGradient id="paint6_linear_421_1382" x1="786.046" y1="-183.836" x2="786.046" y2="388.098" gradientUnits="userSpaceOnUse">
<stop offset="0.55" stop-color="#7F5268"/>
<stop offset="0.8" stop-color="#F7EDE2" stop-opacity="0"/>
</linearGradient>
</defs>
</svg>
