<svg width="480" height="475" viewBox="0 0 480 475" fill="none" xmlns="http://www.w3.org/2000/svg">
<path d="M449.106 264.034C469.313 195.769 466.874 122.797 442.154 56.0339C445.597 54.3163 448.576 51.7961 450.841 48.6857C453.106 45.5754 454.59 41.9662 455.167 38.1623C455.745 34.3583 455.4 30.4713 454.161 26.8288C452.922 23.1862 450.825 19.895 448.047 17.2326C445.27 14.5701 441.893 12.6145 438.201 11.5305C434.509 10.4465 430.611 10.266 426.835 11.0042C423.059 11.7423 419.516 13.3775 416.504 15.7718C413.492 18.1662 411.1 21.2495 409.53 24.7619L394.978 20.9699C287.747 -6.98998 175.137 -6.98998 67.9059 20.9699L53.3379 24.7539C51.7655 21.2439 49.3726 18.1632 46.3607 15.7714C43.3488 13.3795 39.8062 11.7465 36.0312 11.01C32.2563 10.2734 28.3597 10.4549 24.6695 11.5392C20.9794 12.6234 17.6039 14.5786 14.8274 17.2401C12.0509 19.9016 9.95465 23.1914 8.71533 26.8324C7.47602 30.4733 7.1299 34.3588 7.70613 38.1615C8.28236 41.9642 9.76407 45.5727 12.0264 48.6831C14.2888 51.7934 17.2656 54.3145 20.7059 56.0339C-6.90198 129.893 -6.90198 211.239 20.7059 285.098C17.2593 286.829 14.2807 289.366 12.0225 292.493C9.76427 295.62 8.29295 299.245 7.73316 303.061C7.17338 306.877 7.54162 310.772 8.80668 314.416C10.0718 318.06 12.1964 321.345 15.0006 323.993C17.8048 326.641 21.206 328.575 24.916 329.629C28.6261 330.684 32.5357 330.829 36.3137 330.052C40.0917 329.275 43.6268 327.599 46.6195 325.166C49.6122 322.733 51.9744 319.614 53.5059 316.074L93.8499 324.874C136.574 334.104 180.119 339.006 223.826 339.506C223.666 341.858 223.434 344.17 223.434 346.57C223.403 367.181 228.349 387.494 237.852 405.783C247.356 424.072 261.135 439.795 278.018 451.616C294.902 463.438 314.39 471.007 334.827 473.681C355.263 476.356 376.043 474.055 395.4 466.976C414.756 459.896 432.117 448.247 446.006 433.019C459.895 417.791 469.901 399.435 475.174 379.51C480.447 359.585 480.83 338.682 476.292 318.577C471.753 298.473 462.427 279.761 449.106 264.034ZM97.2179 309.234L49.1379 298.754C47.9701 298.499 46.7601 298.51 45.5968 298.784C44.4336 299.059 43.3466 299.59 42.4157 300.34C41.4849 301.09 40.7339 302.039 40.2179 303.117C39.7019 304.195 39.434 305.375 39.4339 306.57C39.4339 308.152 38.9647 309.699 38.0857 311.014C37.2066 312.33 35.9572 313.355 34.4954 313.961C33.0336 314.566 31.4251 314.725 29.8732 314.416C28.3214 314.108 26.8959 313.346 25.7771 312.227C24.6583 311.108 23.8963 309.683 23.5876 308.131C23.279 306.579 23.4374 304.97 24.0429 303.508C24.6484 302.047 25.6738 300.797 26.9894 299.918C28.305 299.039 29.8517 298.57 31.4339 298.57C32.7578 298.57 34.0609 298.241 35.2264 297.613C36.392 296.986 37.3836 296.078 38.1122 294.973C38.8409 293.868 39.2838 292.599 39.4014 291.281C39.519 289.962 39.3075 288.635 38.7859 287.418L38.3859 286.482C8.54388 212.157 8.51524 129.187 38.3059 54.8419L38.7859 53.7219C39.3075 52.5052 39.519 51.178 39.4014 49.8594C39.2838 48.5408 38.8409 47.272 38.1122 46.1667C37.3836 45.0614 36.392 44.1542 35.2264 43.5265C34.0609 42.8988 32.7578 42.5701 31.4339 42.5699C29.8517 42.5699 28.305 42.1008 26.9894 41.2217C25.6738 40.3427 24.6484 39.0932 24.0429 37.6314C23.4374 36.1696 23.279 34.5611 23.5876 33.0092C23.8963 31.4574 24.6583 30.0319 25.7771 28.9131C26.8959 27.7943 28.3214 27.0323 29.8732 26.7237C31.4251 26.415 33.0336 26.5734 34.4954 27.1789C35.9572 27.7844 37.2066 28.8098 38.0857 30.1254C38.9647 31.441 39.4339 32.9877 39.4339 34.5699C39.4339 35.7916 39.7137 36.997 40.2518 38.0938C40.7899 39.1905 41.572 40.1495 42.5382 40.8971C43.5044 41.6447 44.6289 42.1611 45.8256 42.4067C47.0223 42.6523 48.2594 42.6206 49.4419 42.3139L71.9379 36.4659C176.523 9.19803 286.353 9.19803 390.938 36.4659L413.426 42.3059C414.608 42.6124 415.844 42.6443 417.04 42.3991C418.236 42.154 419.36 41.6383 420.327 40.8916C421.293 40.1448 422.075 39.1869 422.613 38.0912C423.152 36.9954 423.433 35.7909 423.434 34.5699C423.434 32.9877 423.903 31.441 424.782 30.1254C425.661 28.8098 426.911 27.7844 428.372 27.1789C429.834 26.5734 431.443 26.415 432.995 26.7237C434.547 27.0323 435.972 27.7943 437.091 28.9131C438.21 30.0319 438.972 31.4574 439.28 33.0092C439.589 34.5611 439.43 36.1696 438.825 37.6314C438.219 39.0932 437.194 40.3427 435.878 41.2217C434.563 42.1008 433.016 42.5699 431.434 42.5699C430.11 42.5701 428.807 42.8988 427.641 43.5265C426.476 44.1542 425.484 45.0614 424.756 46.1667C424.027 47.272 423.584 48.5408 423.466 49.8594C423.349 51.178 423.56 52.5052 424.082 53.7219L424.482 54.6579C449.347 117.134 453.467 185.949 436.234 250.946C419.302 235.85 398.654 225.537 376.414 221.068C354.174 216.6 331.146 218.137 309.697 225.522C288.248 232.907 269.154 245.873 254.38 263.086C239.605 280.299 229.683 301.138 225.634 323.458C182.456 323.103 139.427 318.337 97.2179 309.234ZM351.434 458.57C329.282 458.57 307.628 452.001 289.21 439.695C270.792 427.388 256.436 409.896 247.959 389.43C239.482 368.965 237.264 346.446 241.586 324.72C245.908 302.994 256.574 283.037 272.238 267.374C287.901 251.711 307.858 241.044 329.584 236.722C351.31 232.4 373.829 234.618 394.294 243.095C414.76 251.572 432.252 265.928 444.559 284.346C456.865 302.764 463.434 324.418 463.434 346.57C463.402 376.264 451.592 404.734 430.595 425.731C409.598 446.728 381.128 458.538 351.434 458.57Z" fill="#7F5268"/>
<path d="M351.434 250.57C332.447 250.57 313.886 256.2 298.099 266.749C282.312 277.297 270.007 292.291 262.741 309.832C255.475 327.374 253.574 346.676 257.278 365.299C260.982 383.921 270.126 401.026 283.551 414.452C296.977 427.878 314.083 437.021 332.705 440.725C351.327 444.43 370.63 442.528 388.171 435.262C405.713 427.996 420.706 415.692 431.255 399.905C441.803 384.118 447.434 365.557 447.434 346.57C447.406 321.118 437.283 296.716 419.285 278.718C401.288 260.721 376.886 250.597 351.434 250.57ZM398.106 411.37L394.362 404.882C393.293 403.06 391.547 401.734 389.505 401.194C387.463 400.654 385.29 400.943 383.46 402C381.631 403.056 380.293 404.793 379.74 406.832C379.186 408.871 379.462 411.045 380.506 412.882L384.274 419.402C376.427 422.976 368.051 425.246 359.474 426.122V418.57C359.474 416.448 358.631 414.413 357.131 412.913C355.63 411.413 353.595 410.57 351.474 410.57C349.352 410.57 347.317 411.413 345.817 412.913C344.317 414.413 343.474 416.448 343.474 418.57V426.162C334.897 425.286 326.52 423.016 318.674 419.442L322.442 412.922C323.486 411.085 323.761 408.911 323.208 406.872C322.654 404.833 321.317 403.096 319.487 402.04C317.658 400.983 315.485 400.694 313.442 401.234C311.4 401.774 309.654 403.099 308.586 404.922L304.842 411.41C297.838 406.368 291.691 400.234 286.634 393.242L293.122 389.498C294.944 388.43 296.27 386.684 296.81 384.641C297.35 382.599 297.06 380.426 296.004 378.596C294.948 376.767 293.211 375.429 291.172 374.876C289.133 374.322 286.958 374.598 285.122 375.642L278.602 379.41C275.028 371.564 272.758 363.187 271.882 354.61H279.434C281.555 354.61 283.59 353.767 285.091 352.267C286.591 350.767 287.434 348.732 287.434 346.61C287.434 344.488 286.591 342.453 285.091 340.953C283.59 339.453 281.555 338.61 279.434 338.61H271.842C272.718 330.033 274.988 321.656 278.562 313.81L285.082 317.578C286.918 318.622 289.093 318.897 291.132 318.344C293.171 317.79 294.908 316.453 295.964 314.624C297.02 312.794 297.31 310.621 296.77 308.579C296.23 306.536 294.904 304.79 293.082 303.722L286.594 299.978C291.635 292.975 297.77 286.827 304.762 281.77L308.506 288.258C309.208 289.475 310.22 290.486 311.437 291.188C312.655 291.89 314.036 292.259 315.442 292.258C316.847 292.261 318.228 291.888 319.442 291.178C321.277 290.117 322.616 288.371 323.165 286.324C323.714 284.276 323.428 282.095 322.37 280.258L318.602 273.738C326.448 270.164 334.825 267.894 343.402 267.018V274.57C343.402 276.692 344.245 278.727 345.745 280.227C347.245 281.727 349.28 282.57 351.402 282.57C353.523 282.57 355.558 281.727 357.058 280.227C358.559 278.727 359.402 276.692 359.402 274.57V266.978C367.979 267.854 376.355 270.124 384.202 273.698L380.434 280.218C379.913 281.132 379.577 282.139 379.446 283.183C379.314 284.227 379.39 285.286 379.669 286.3C379.948 287.314 380.424 288.264 381.07 289.094C381.716 289.924 382.519 290.619 383.434 291.138C384.646 291.849 386.028 292.222 387.434 292.218C388.839 292.219 390.22 291.85 391.438 291.148C392.656 290.446 393.667 289.435 394.37 288.218L398.114 281.73C405.103 286.775 411.237 292.909 416.282 299.898L409.794 303.642C408.876 304.163 408.072 304.861 407.425 305.695C406.779 306.529 406.304 307.482 406.027 308.5C405.751 309.519 405.678 310.581 405.814 311.628C405.95 312.674 406.292 313.683 406.82 314.597C407.347 315.51 408.05 316.311 408.888 316.951C409.726 317.592 410.683 318.061 411.703 318.331C412.723 318.6 413.786 318.666 414.831 318.523C415.877 318.38 416.883 318.032 417.794 317.498L424.314 313.73C427.888 321.576 430.157 329.953 431.034 338.53H423.434C421.312 338.53 419.277 339.373 417.777 340.873C416.276 342.373 415.434 344.408 415.434 346.53C415.434 348.652 416.276 350.687 417.777 352.187C419.277 353.687 421.312 354.53 423.434 354.53H431.026C430.149 363.107 427.88 371.484 424.306 379.33L417.786 375.562C415.949 374.518 413.774 374.242 411.736 374.796C409.697 375.349 407.96 376.687 406.903 378.516C405.847 380.346 405.557 382.519 406.097 384.561C406.637 386.604 407.963 388.35 409.786 389.418L416.274 393.162C411.235 400.179 405.101 406.341 398.106 411.41V411.37Z" fill="#7F5268"/>
<path d="M351.434 290.57C349.312 290.57 347.277 291.413 345.777 292.913C344.276 294.413 343.434 296.448 343.434 298.57V332.714L327.722 323.642C325.885 322.598 323.71 322.322 321.672 322.876C319.633 323.429 317.896 324.767 316.839 326.596C315.783 328.426 315.493 330.599 316.033 332.641C316.573 334.684 317.899 336.43 319.722 337.498L347.434 353.498C348.65 354.2 350.029 354.57 351.434 354.57C352.838 354.57 354.217 354.2 355.434 353.498C356.65 352.796 357.66 351.786 358.362 350.57C359.064 349.354 359.434 347.974 359.434 346.57V298.57C359.434 296.448 358.591 294.413 357.091 292.913C355.59 291.413 353.555 290.57 351.434 290.57Z" fill="#7F5268"/>
<path d="M247.434 226.57H218.746L253.09 192.226C254.208 191.107 254.97 189.682 255.278 188.13C255.587 186.579 255.428 184.97 254.823 183.509C254.218 182.047 253.193 180.798 251.877 179.919C250.562 179.04 249.016 178.57 247.434 178.57H199.434C197.312 178.57 195.277 179.413 193.777 180.913C192.276 182.413 191.434 184.448 191.434 186.57C191.434 188.692 192.276 190.727 193.777 192.227C195.277 193.727 197.312 194.57 199.434 194.57H228.122L193.778 228.914C192.659 230.033 191.897 231.458 191.589 233.01C191.28 234.561 191.439 236.17 192.044 237.631C192.65 239.093 193.675 240.342 194.99 241.221C196.305 242.1 197.852 242.57 199.434 242.57H247.434C249.555 242.57 251.59 241.727 253.09 240.227C254.591 238.727 255.434 236.692 255.434 234.57C255.434 232.448 254.591 230.413 253.09 228.913C251.59 227.413 249.555 226.57 247.434 226.57Z" fill="#7F5268"/>
<path d="M207.434 154.57C207.434 152.448 206.591 150.413 205.09 148.913C203.59 147.413 201.555 146.57 199.434 146.57H154.746L205.09 96.2259C206.208 95.1071 206.97 93.6818 207.278 92.1302C207.587 90.5786 207.428 88.9703 206.823 87.5087C206.218 86.0471 205.193 84.7978 203.877 83.9187C202.562 83.0397 201.016 82.5703 199.434 82.5699H135.434C133.312 82.5699 131.277 83.4128 129.777 84.9131C128.276 86.4134 127.434 88.4482 127.434 90.5699C127.434 92.6917 128.276 94.7265 129.777 96.2268C131.277 97.7271 133.312 98.5699 135.434 98.5699H180.122L129.778 148.914C128.659 150.033 127.897 151.458 127.589 153.01C127.28 154.561 127.439 156.17 128.044 157.631C128.65 159.093 129.675 160.342 130.99 161.221C132.305 162.1 133.852 162.57 135.434 162.57H199.434C201.555 162.57 203.59 161.727 205.09 160.227C206.591 158.727 207.434 156.692 207.434 154.57Z" fill="#7F5268"/>
<path d="M103.13 276.97L69.6581 269.674C68.3442 269.402 67.12 268.803 66.098 267.933C65.0761 267.064 64.2893 265.951 63.8101 264.698C54.664 239.421 49.1949 212.962 47.5701 186.13C47.4428 184.008 46.4778 182.024 44.8875 180.614C43.2972 179.203 41.2118 178.483 39.0901 178.61C36.9683 178.737 34.9841 179.702 33.5738 181.293C32.1635 182.883 31.4428 184.968 31.5701 187.09C33.2964 215.435 39.0862 243.384 48.7621 270.082C50.1655 273.881 52.5034 277.265 55.5599 279.921C58.6164 282.578 62.2929 284.421 66.2501 285.282L99.7221 292.578C100.284 292.702 100.858 292.764 101.434 292.762C103.406 292.76 105.308 292.029 106.775 290.709C108.241 289.39 109.168 287.576 109.379 285.615C109.589 283.654 109.067 281.684 107.914 280.084C106.761 278.484 105.057 277.367 103.13 276.946V276.97Z" fill="#7F5268"/>
<path d="M39.0336 162.746H39.4336C41.4878 162.749 43.4643 161.961 44.9536 160.546C46.4429 159.131 47.3309 157.198 47.4336 155.146C47.5616 152.498 47.7376 149.85 47.9456 147.202C48.0567 146.141 47.9545 145.068 47.6449 144.047C47.3353 143.026 46.8246 142.078 46.1429 141.257C45.4612 140.436 44.6222 139.76 43.6753 139.269C42.7284 138.777 41.6928 138.48 40.6293 138.394C39.5658 138.309 38.496 138.437 37.4828 138.771C36.4696 139.106 35.5335 139.639 34.7296 140.341C33.9257 141.042 33.2702 141.897 32.8017 142.856C32.3332 143.814 32.0612 144.857 32.0016 145.922C31.7776 148.727 31.5936 151.538 31.4496 154.354C31.3429 156.472 32.0819 158.546 33.5041 160.12C34.9263 161.694 36.9152 162.638 39.0336 162.746Z" fill="#7F5268"/>
<path d="M326.162 54.6419C328.794 55.0659 331.434 55.5059 334.058 55.9699C334.513 56.0462 334.973 56.0836 335.434 56.0819C337.473 56.1358 339.455 55.4095 340.975 54.0512C342.496 52.6929 343.441 50.8053 343.616 48.7739C343.792 46.7426 343.185 44.7208 341.92 43.1217C340.655 41.5225 338.828 40.4667 336.81 40.1699C334.106 39.7059 331.41 39.2419 328.706 38.8099C326.611 38.4726 324.468 38.9813 322.748 40.2243C321.028 41.4673 319.872 43.3427 319.534 45.4379C319.197 47.5331 319.706 49.6765 320.949 51.3966C322.192 53.1167 324.067 54.2726 326.162 54.6099V54.6419Z" fill="#7F5268"/>
<path d="M365.625 62.3779C371.097 63.6419 376.553 64.9753 381.993 66.3779L391.473 68.8419C392.724 69.1524 393.881 69.7604 394.847 70.6142C395.812 71.468 396.557 72.5424 397.017 73.7459C404.697 94.943 409.8 116.987 412.217 139.402C412.428 141.362 413.356 143.176 414.822 144.494C416.288 145.813 418.19 146.543 420.161 146.546C420.45 146.546 420.739 146.53 421.025 146.498C423.133 146.27 425.063 145.216 426.394 143.566C427.724 141.916 428.346 139.806 428.121 137.698C425.594 114.006 420.222 90.7049 412.121 68.2979C410.781 64.652 408.572 61.3875 405.687 58.7866C402.802 56.1856 399.326 54.3265 395.561 53.3699L386.089 50.9059C380.505 49.4499 374.905 48.0713 369.289 46.7699C367.222 46.2904 365.048 46.6519 363.247 47.7749C361.446 48.8978 360.165 50.6903 359.685 52.7579C359.206 54.8256 359.567 56.999 360.69 58.8001C361.813 60.6012 363.606 61.8824 365.673 62.3619L365.625 62.3779Z" fill="#7F5268"/>
</svg>
