<svg width="480" height="480" viewBox="0 0 480 480" fill="none" xmlns="http://www.w3.org/2000/svg">
<path d="M360 479.979C364.416 479.979 368 476.395 368 471.979V411.259L421.936 368.987C428.688 363.611 437.728 353.067 441.264 344.683L479.344 256.155C479.776 255.163 480 254.075 480 252.987V175.883C480 165.931 468.72 158.587 457.824 157.259C444.32 155.515 427.344 162.859 420.944 188.411C417.648 201.675 416.912 212.891 416.256 222.779C415.952 227.179 419.28 231.323 423.696 231.611C428.112 231.915 431.904 228.891 432.176 224.491C432.832 214.603 433.52 204.155 436.48 192.267C438.496 184.235 442.816 174.363 452.048 173.131C458.224 172.251 463.392 175.563 464.24 177.067L464 251.339L426.544 338.427C424.208 344.011 416.944 352.507 412.016 356.443L355.056 401.083C353.12 402.587 352 404.907 352 407.371V471.979C352 476.395 355.584 479.979 360 479.979Z" fill="#7F5268"/>
<path d="M120 479.979C115.584 479.979 112 476.395 112 471.979V411.259L58.064 368.987C51.312 363.611 42.272 353.067 38.736 344.683L0.656 256.155C0.224 255.163 0 254.075 0 252.987V175.883C0 165.931 11.28 158.587 22.176 157.259C35.68 155.515 52.656 162.859 59.056 188.411C62.352 201.675 63.088 212.891 63.744 222.779C64.048 227.179 60.72 231.323 56.304 231.611C51.888 231.915 48.096 228.891 47.824 224.491C47.168 214.603 46.48 204.155 43.52 192.267C41.504 184.235 37.184 174.363 27.952 173.131C21.776 172.251 16.608 175.563 15.76 177.067L16 251.339L53.456 338.427C55.792 344.011 63.056 352.507 67.984 356.443L124.944 401.083C126.88 402.587 128 404.907 128 407.371V471.979C128 476.395 124.416 479.979 120 479.979Z" fill="#7F5268"/>
<path d="M216 479.979C211.584 479.979 208 476.395 208 471.979V384.571C208 350.859 184.72 321.467 151.376 313.083C147.088 312.011 144.496 307.659 145.568 303.371C146.64 299.099 150.912 296.443 155.28 297.563C195.728 307.739 224 343.515 224 384.571V471.979C224 476.395 220.416 479.979 216 479.979Z" fill="#7F5268"/>
<path d="M124.192 342.651C122.144 342.651 120.096 341.867 118.528 340.315L48.336 270.235C46.832 268.731 46 266.699 46 264.571C46 262.459 46.848 260.411 48.336 258.907C70.336 236.907 97.456 238.763 122.72 264.027L158.8 300.027C161.92 303.147 161.92 308.219 158.8 311.339C155.68 314.475 150.608 314.459 147.488 311.355L111.408 275.355C95.008 258.955 79.664 255.483 65.792 265.051L129.824 328.987C132.944 332.107 132.944 337.179 129.824 340.315C128.288 341.867 126.24 342.651 124.192 342.651Z" fill="#7F5268"/>
<path d="M264 479.979C259.584 479.979 256 476.395 256 471.979V384.571C256 343.515 284.272 307.739 324.72 297.563C329.056 296.443 333.344 299.099 334.432 303.371C335.488 307.659 332.896 312.011 328.624 313.083C295.28 321.467 272 350.859 272 384.571V471.979C272 476.395 268.416 479.979 264 479.979Z" fill="#7F5268"/>
<path d="M355.808 342.651C353.76 342.651 351.712 341.867 350.144 340.315C347.024 337.179 347.024 332.123 350.144 328.987L414.176 265.051C400.32 255.499 384.96 258.971 368.56 275.355L332.48 311.355C329.36 314.459 324.288 314.475 321.168 311.339C318.048 308.219 318.048 303.147 321.168 300.027L357.248 264.027C382.512 238.763 409.632 236.907 431.632 258.907C433.136 260.411 433.968 262.443 433.968 264.571C433.968 266.699 433.12 268.731 431.632 270.235L361.44 340.315C359.904 341.867 357.856 342.651 355.808 342.651Z" fill="#7F5268"/>
<path d="M355.808 342.651C353.76 342.651 351.712 341.867 350.144 340.315C347.024 337.179 347.024 332.123 350.144 328.987L414.176 265.051C400.32 255.499 384.96 258.971 368.56 275.355L332.48 311.355C329.36 314.459 324.288 314.475 321.168 311.339C318.048 308.219 318.048 303.147 321.168 300.027L357.248 264.027C382.512 238.763 409.632 236.907 431.632 258.907C433.136 260.411 433.968 262.443 433.968 264.571C433.968 266.699 433.12 268.731 431.632 270.235L361.44 340.315C359.904 341.867 357.856 342.651 355.808 342.651Z" fill="#7F5268"/>
<path d="M275.184 183.163C270.848 183.163 266.512 182.811 262.176 182.091C241.472 178.651 223.328 167.339 211.088 150.219C198.848 133.099 194.016 112.267 197.44 91.5631C199.856 77.0991 213.552 67.2591 228.048 69.6911C242.512 72.0911 252.336 85.8351 249.92 100.299C248.96 106.059 250.048 112.027 252.928 117.067C255.136 120.907 253.808 125.787 249.968 127.995C246.176 130.155 241.264 128.875 239.04 125.035C234.32 116.811 232.576 107.099 234.112 97.6911C235.072 91.9151 231.152 86.4271 225.392 85.4671C219.6 84.5551 214.144 88.4111 213.184 94.1871C210.448 110.667 214.304 127.259 224.064 140.907C233.824 154.555 248.288 163.579 264.768 166.315C269.296 167.051 273.888 167.339 278.368 167.083C282.864 166.987 286.56 170.251 286.768 174.651C287.008 179.067 283.616 182.827 279.2 183.067C277.904 183.131 276.544 183.163 275.184 183.163Z" fill="#7F5268"/>
<path d="M228.576 291.179C221.248 291.179 213.456 290.475 205.136 288.939C183.504 284.939 165.856 272.491 155.424 253.851C148.24 241.035 142.224 220.987 146.272 191.611C143.312 193.003 140.416 193.867 137.616 194.539C126.528 197.211 110.624 192.539 101.376 183.931C94.3677 177.387 91.3117 168.891 92.7997 160.011C94.0957 152.347 97.8717 146.251 103.728 142.363C110.4 137.947 118.416 137.227 124 137.563C135.168 108.059 158.736 93.6111 185.552 100.459C197.376 103.483 206.992 110.795 213.344 121.595C224.912 141.227 223.888 167.915 219.072 186.331C217.968 190.603 213.648 193.147 209.328 192.059C205.04 190.939 202.48 186.571 203.616 182.299C207.408 167.675 208.64 145.147 199.568 129.723C195.344 122.571 189.296 117.931 181.584 115.963C161.248 110.731 144.752 122.987 137.184 148.587C135.968 152.651 131.856 155.051 127.664 154.107C125.056 153.515 117.184 152.651 112.544 155.755C111.2 156.667 109.328 158.363 108.592 162.699C108.368 163.995 107.696 167.963 112.288 172.251C118.528 178.059 129.28 180.107 133.872 179.003C139.536 177.643 147.072 175.819 155.184 155.643C156.096 153.019 157.056 150.347 158.112 147.627C159.664 143.563 164.144 141.451 168.288 142.955C172.384 144.427 174.56 148.891 173.184 153.019C172.208 155.883 171.248 158.539 170.256 161.019C158.144 196.139 157.84 225.419 169.392 246.059C177.456 260.459 191.184 270.107 208.064 273.227C279.104 286.315 305.92 230.891 321.904 197.739C327.328 186.475 330.608 179.691 335.248 176.379C336.672 175.371 339.488 173.835 343.312 171.819C362.352 161.819 406.96 138.379 412 94.4591C416.24 57.8031 389.76 23.0191 353.024 16.9231C335.616 14.0111 317.952 18.0911 303.504 28.4111C289.072 38.7311 279.52 54.0591 276.608 71.5631C276.192 74.9871 273.568 78.9071 270.192 79.5791C259.648 81.6751 251.696 89.8191 249.952 100.299C248.176 110.971 253.456 121.627 263.104 126.827C266.992 128.923 268.448 133.771 266.352 137.659C264.24 141.547 259.424 143.003 255.504 140.923C239.84 132.491 231.248 115.115 234.16 97.6751C236.64 82.7311 247.312 70.3471 261.472 65.4031C265.68 45.2431 277.2 27.5311 294.176 15.4031C312.08 2.58711 333.904 -2.46889 355.632 1.13111C400.64 8.60311 433.056 51.2911 427.888 96.2831C421.856 148.619 370.192 175.755 350.736 185.979C347.824 187.515 345.648 188.603 344.544 189.371C342.992 190.811 339.28 198.507 336.288 204.683C322.272 233.771 294.56 291.179 228.576 291.179Z" fill="#7F5268"/>
</svg>
