<svg width="115" height="115" viewBox="0 0 115 115" fill="none" xmlns="http://www.w3.org/2000/svg">
<path d="M5.91217 96.3844C5.5775 96.7211 5.38965 97.1765 5.38965 97.6512C5.38965 98.1259 5.5775 98.5813 5.91217 98.918L16.1723 109.088C16.3402 109.255 16.5393 109.387 16.7583 109.476C16.9772 109.565 17.2116 109.611 17.4481 109.609C17.9195 109.607 18.3712 109.42 18.7059 109.088L36.495 91.2992L23.7911 78.5953L5.91217 96.3844Z" fill="#7F5268"/>
<path d="M104.776 10.2242C101.744 7.19575 97.6332 5.49469 93.3477 5.49469C89.0621 5.49469 84.9518 7.19575 81.9195 10.2242L31.3375 60.8062C30.0782 62.0652 29.2214 63.6699 28.8759 65.4167C28.5304 67.1635 28.7117 68.9736 29.3969 70.6172L25.9648 75.7742L39.2258 89.0351L44.3828 85.6031C46.0264 86.2883 47.8365 86.4696 49.5833 86.1241C51.3301 85.7786 52.9348 84.9218 54.1938 83.6625L104.776 33.0805C107.804 30.0482 109.505 25.9379 109.505 21.6523C109.505 17.3668 107.804 13.2564 104.776 10.2242ZM69.4492 58.2547C67.7644 59.939 65.4796 60.8852 63.0973 60.8852C60.7149 60.8852 58.4301 59.939 56.7453 58.2547C55.061 56.5699 54.1148 54.2851 54.1148 51.9027C54.1148 49.5204 55.061 47.2356 56.7453 45.5508L58.0031 44.275L70.725 56.9969L69.4492 58.2547ZM78.4336 49.2703L71.2461 56.4578L73.2766 54.4273L60.5547 41.7414L62.8906 39.3875L75.6125 52.1094L78.1641 49.5578L65.4602 36.8359L65.6398 36.6562C67.3343 35.0197 69.6038 34.1141 71.9595 34.1346C74.3151 34.155 76.5685 35.0999 78.2343 36.7657C79.9001 38.4315 80.845 40.6848 80.8654 43.0405C80.8859 45.3962 79.9803 47.6657 78.3437 49.3601L78.4336 49.2703Z" fill="#7F5268"/>
</svg>
