<svg width="121" height="121" viewBox="0 0 121 121" fill="none" xmlns="http://www.w3.org/2000/svg">
<rect width="120.673" height="120.031" rx="60.0155" fill="#7F5268"/>
<path d="M61.3397 47.322C60.6799 48.2905 58.7379 49.0849 56.9425 49.639C54.6303 50.357 52.2113 50.71 49.7949 50.5907C47.9831 50.5011 45.9212 50.1953 44.6734 49.3452M44.6734 49.3452C45.9212 50.1953 46.9619 52.0031 47.7071 53.6554C48.7017 55.8618 49.2587 58.242 49.4387 60.654C49.5793 62.529 49.5491 64.6296 48.8911 65.5955M44.6734 49.3452L75.9993 70.6857" stroke="#E6E6E6" stroke-width="0.641877"/>
<path d="M50.579 107.179L52.2634 107.516L52.1471 108.097L50.4628 107.761L50.579 107.179ZM44.7167 105.752L46.3526 106.276L46.1718 106.841L44.5359 106.317L44.7167 105.752ZM39.2818 101.652L39.8881 101.919L38.6934 104.633C38.4048 105.288 38.645 105.756 39.2725 106.032L40.7106 106.665L40.4655 107.222L38.8863 106.527C38.0404 106.155 37.6093 105.452 38.0251 104.507L39.2818 101.652ZM33.5627 98.5869L34.1232 98.94L31.9838 102.335L33.9454 103.571L33.621 104.086L30.3365 102.017L30.6609 101.502L31.4234 101.982L33.5627 98.5869ZM28.2788 94.7261C29.2813 95.6039 29.2142 96.6509 28.3364 97.6534L26.6669 99.5599L24.998 98.0985C23.8854 97.1242 24.1865 96.1491 25.0796 95.1292C26.1807 93.8717 27.3053 93.8736 28.2788 94.7261ZM27.8605 95.1686C27.1594 94.5546 26.3891 94.6275 25.5721 95.5605C25.156 96.0357 24.9421 96.4319 24.9253 96.7551C24.9194 97.0775 25.0642 97.3682 25.3713 97.6371L26.5535 98.6723L27.7967 97.2525C28.4767 96.476 28.5733 95.7928 27.8605 95.1686ZM21.4859 88.0356L23.9831 91.0481L23.4909 91.4561L21.7606 89.3687L19.9578 90.8631C19.4123 91.3153 19.4188 91.8301 19.8612 92.3638L20.8935 93.6091L20.425 93.9975L19.2502 92.5802C18.6554 91.8626 18.6584 91.0697 19.4116 90.4455L21.3329 88.8528L20.9937 88.4436L21.4859 88.0356ZM14.8896 77.0452L15.1967 77.7432L13.5735 80.7292C13.9214 81.1568 14.3613 81.2578 14.8901 81.0252L16.3566 80.38L16.6234 80.9864L15.171 81.6253C14.4166 81.9572 13.8765 81.8581 13.3049 81.2092L12.4213 82.8349L12.3931 82.8473L12.0984 82.1775L13.5485 79.4864C13.0209 78.9948 12.6181 78.9784 12.174 79.1738L11.0036 79.6887L10.7368 79.0824L11.9425 78.552C12.6123 78.2573 13.1585 78.3705 13.806 79.0197L14.8614 77.0576L14.8896 77.0452ZM12.9287 71.2432C12.9815 71.4365 13.0031 71.5976 13.0154 71.7528L12.3741 71.7831C12.3699 71.6971 12.3565 71.6054 12.3339 71.5078C12.1597 70.7575 11.7018 70.3182 10.5164 70.5934L8.70588 71.0375L8.88879 71.8253C9.02119 72.3956 9.4904 72.7136 10.3542 72.7898L13.3198 73.0976L13.4713 73.7504L10.2325 73.3558C9.14528 73.2366 8.48352 72.7023 8.28145 71.8319L7.98357 70.5489C8.7419 70.3412 9.62376 70.1206 10.3966 69.9412C11.6646 69.6468 12.6216 69.9544 12.9287 71.2432ZM10.9912 73.3536L8.99219 74.8931L8.84064 74.2404L10.4279 73.0732L10.9912 73.3536ZM11.4576 61.4153L11.4924 62.1771L8.90212 64.3775C9.07261 64.9017 9.44657 65.1544 10.0237 65.128L11.6241 65.0548L11.6544 65.7165L10.0693 65.7891C9.24602 65.8267 8.77796 65.5397 8.47868 64.7284L7.06848 65.9264L7.0377 65.9278L7.00426 65.1968L9.32672 63.2092C9.01175 62.5605 8.64201 62.4 8.15726 62.4222L6.87998 62.4807L6.8497 61.8189L8.16545 61.7587C8.89643 61.7253 9.36519 62.0277 9.73513 62.8666L11.4268 61.4167L11.4576 61.4153ZM9.57034 56.1564L9.40881 57.8664L8.81834 57.8107L8.97988 56.1006L9.57034 56.1564ZM10.4789 50.2241L10.0793 51.8947L9.50247 51.7567L9.90206 50.0862L10.4789 50.2241ZM14.1871 44.5517L13.9577 45.1731L11.1758 44.1459C10.5038 43.8977 10.0517 44.166 9.81422 44.809L9.26993 46.2831L8.6991 46.0723L9.29676 44.4537C9.61693 43.5867 10.2925 43.1136 11.2607 43.4711L14.1871 44.5517ZM16.9266 38.7271L16.5989 39.3028L13.1114 37.3174L11.9644 39.3322L11.4356 39.0311L13.3562 35.6575L13.885 35.9585L13.4392 36.7417L16.9266 38.7271ZM20.548 33.314C19.706 34.3469 18.6573 34.3168 17.6245 33.4749L15.6603 31.8737L17.0619 30.1543C17.9963 29.008 18.9815 29.2745 20.0323 30.131C21.3278 31.1871 21.3656 32.3111 20.548 33.314ZM20.091 32.9117C20.6798 32.1893 20.5798 31.422 19.6186 30.6385C19.1291 30.2394 18.7255 30.0396 18.4019 30.0342C18.0795 30.0397 17.7942 30.1947 17.5362 30.5111L16.5434 31.729L18.0061 32.9214C18.8061 33.5735 19.4923 33.646 20.091 32.9117ZM26.9919 26.2917L24.0671 28.891L23.6424 28.4131L25.669 26.6121L24.1136 24.8618C23.6429 24.3321 23.1286 24.3563 22.6104 24.8168L21.4013 25.8913L20.9971 25.4364L22.3732 24.2136C23.0698 23.5945 23.8624 23.5703 24.5122 24.3015L26.1699 26.1669L26.5672 25.8139L26.9919 26.2917ZM37.7357 19.1759L37.0554 19.5203L33.9858 18.0613C33.5777 18.432 33.5007 18.8767 33.7616 19.3921L34.4853 20.8215L33.8943 21.1207L33.1776 19.7051C32.8053 18.9697 32.8749 18.4251 33.492 17.8192L31.8208 17.025L31.8068 16.9975L32.4597 16.667L35.2254 17.969C35.6877 17.4156 35.6822 17.0126 35.463 16.5796L34.8855 15.4389L35.4765 15.1397L36.0714 16.3148C36.4019 16.9676 36.3186 17.5192 35.7054 18.2009L37.7218 19.1484L37.7357 19.1759ZM43.4704 16.8153C43.2817 16.8829 43.1229 16.9169 42.969 16.9413L42.889 16.3042C42.9744 16.2934 43.0649 16.2729 43.1603 16.2427C43.8948 16.0108 44.2973 15.5202 43.9308 14.3597L43.3474 12.5892L42.5761 12.8327C42.0179 13.009 41.7373 13.5015 41.7284 14.3686L41.6519 17.3492L41.0129 17.551L41.1547 14.2913C41.1891 13.1981 41.6704 12.4968 42.5224 12.2278L43.7784 11.8311C44.0444 12.571 44.3328 13.4331 44.5717 14.1896C44.9637 15.4309 44.7314 16.4089 43.4704 16.8153ZM41.2158 15.0475L39.5257 13.1742L40.1647 12.9724L41.4516 14.4641L41.2158 15.0475ZM53.2093 14.4626L52.455 14.5742L50.0041 12.2196C49.4997 12.4422 49.2861 12.8398 49.3707 13.4112L49.6053 14.9961L48.95 15.0931L48.7177 13.5235C48.597 12.7082 48.8352 12.2135 49.6121 11.8338L48.2778 10.5519L48.2732 10.5214L48.9971 10.4142L51.2093 12.5239C51.8228 12.145 51.9451 11.7609 51.874 11.2809L51.6868 10.0161L52.3421 9.91906L52.5349 11.222C52.6421 11.9458 52.3886 12.4428 51.5914 12.8956L53.2048 14.4321L53.2093 14.4626ZM63.9439 12.0934L62.2316 11.9574L62.2786 11.3661L63.9909 11.5022L63.9439 12.0934ZM69.9311 12.8232L68.2454 12.493L68.3594 11.911L70.0451 12.2411L69.9311 12.8232ZM75.9665 16.3021L75.3339 16.1054L76.2144 13.2737C76.4271 12.5896 76.1356 12.1522 75.481 11.9486L73.9806 11.4821L74.1612 10.901L75.8088 11.4133C76.6914 11.6877 77.1992 12.3377 76.8927 13.3232L75.9665 16.3021ZM81.8633 18.623L81.2646 18.3397L82.9808 14.7122L80.885 13.7207L81.1452 13.1706L84.6544 14.8308L84.3942 15.3809L83.5795 14.9955L81.8633 18.623ZM87.5729 21.8179C86.4728 21.066 86.4144 20.0184 87.1664 18.9183L88.5964 16.8262L90.4278 18.0781C91.6487 18.9126 91.4661 19.9168 90.7011 21.0359C89.7579 22.4158 88.6412 22.5482 87.5729 21.8179ZM87.9353 21.3286C88.7047 21.8545 89.4608 21.6903 90.1606 20.6665C90.517 20.145 90.6821 19.7261 90.6602 19.4032C90.6276 19.0824 90.4492 18.8111 90.1121 18.5807L88.8149 17.694L87.75 19.252C87.1676 20.1041 87.1532 20.794 87.9353 21.3286ZM95.1471 27.6417L92.2923 24.9657L92.7296 24.4992L94.7077 26.3535L96.309 24.6451C96.7937 24.1281 96.7227 23.6182 96.2169 23.1441L95.0368 22.0379L95.453 21.5939L96.7961 22.8529C97.476 23.4903 97.5723 24.2773 96.9033 24.991L95.1966 26.8118L95.5843 27.1752L95.1471 27.6417ZM103.119 37.7016L102.723 37.0497L103.943 33.8773C103.542 33.4988 103.092 33.4561 102.599 33.7558L101.229 34.5868L100.885 34.0205L102.242 33.1974C102.946 32.7699 103.495 32.7976 104.146 33.3664L104.81 31.6392L104.836 31.6232L105.216 32.2488L104.13 35.1062C104.717 35.5247 105.118 35.4883 105.533 35.2366L106.626 34.5734L106.97 35.1397L105.844 35.8229C105.218 36.2025 104.662 36.1617 103.935 35.6025L103.145 37.6857L103.119 37.7016ZM105.845 43.2086C105.766 43.0243 105.723 42.8677 105.689 42.7156L106.32 42.5977C106.336 42.6824 106.362 42.7714 106.398 42.865C106.673 43.5843 107.187 43.9568 108.324 43.5218L110.056 42.834L109.767 42.0786C109.558 41.5319 109.049 41.2811 108.183 41.3239L105.204 41.4252L104.964 40.7993L108.226 40.7466C109.32 40.7158 110.048 41.1545 110.368 41.9889L110.839 43.219C110.116 43.5286 109.272 43.8679 108.532 44.1515C107.316 44.6168 106.326 44.4431 105.845 43.2086ZM107.475 40.8527L109.244 39.0539L109.484 39.6797L108.072 41.0533L107.475 40.8527ZM108.628 52.7353L108.492 51.985L110.766 49.4594C110.528 48.9626 110.123 48.7618 109.555 48.8648L107.978 49.1504L107.86 48.4986L109.422 48.2157C110.233 48.0688 110.735 48.291 111.139 49.0553L112.378 47.6802L112.408 47.6748L112.538 48.3948L110.501 50.6739C110.9 51.2749 111.287 51.3846 111.765 51.2981L113.023 51.0702L113.141 51.722L111.845 51.9568C111.125 52.0873 110.62 51.8499 110.142 51.0677L108.658 52.7298L108.628 52.7353ZM111.131 63.343L111.282 61.632L111.873 61.6841L111.722 63.3951L111.131 63.343ZM110.306 69.2914L110.687 67.6166L111.265 67.7482L110.884 69.423L110.306 69.2914ZM106.667 75.0035L106.89 74.3797L109.682 75.3785C110.356 75.6198 110.806 75.347 111.037 74.7015L111.566 73.222L112.139 73.4269L111.558 75.0515C111.246 75.9218 110.576 76.4017 109.604 76.0541L106.667 75.0035ZM103.995 80.8615L104.317 80.2824L107.825 82.2306L108.951 80.2037L109.483 80.4992L107.598 83.893L107.066 83.5976L107.503 82.8098L103.995 80.8615ZM100.429 86.3103C101.26 85.2689 102.309 85.2883 103.351 86.1197L105.331 87.7009L103.947 89.4344C103.024 90.5902 102.036 90.3337 100.977 89.4879C99.6708 88.445 99.6216 87.3215 100.429 86.3103ZM100.89 86.708C100.309 87.4363 100.416 88.2025 101.385 88.9762C101.879 89.3703 102.285 89.566 102.608 89.5681C102.931 89.5593 103.214 89.4015 103.469 89.0825L104.449 87.8545L102.975 86.6771C102.168 86.0331 101.481 85.9676 100.89 86.708ZM94.0563 93.4084L96.9478 90.7721L97.3785 91.2445L95.375 93.0713L96.9526 94.8016C97.4301 95.3252 97.944 95.2944 98.4563 94.8274L99.6516 93.7375L100.062 94.1872L98.7012 95.4275C98.0125 96.0555 97.2203 96.0898 96.5612 95.3669L94.8798 93.5228L94.4871 93.8808L94.0563 93.4084ZM83.3953 100.625L84.0726 100.275L87.155 101.707C87.5598 101.333 87.6329 100.887 87.3674 100.374L86.6311 98.9511L87.2194 98.6467L87.9486 100.056C88.3274 100.788 88.2626 101.333 87.651 101.944L89.3292 102.724L89.3433 102.751L88.6934 103.088L85.9163 101.81C85.4589 102.368 85.468 102.771 85.691 103.202L86.2786 104.337L85.6903 104.642L85.085 103.472C84.7487 102.822 84.8271 102.27 85.4343 101.582L83.4095 100.653L83.3953 100.625ZM77.6766 103.048C77.8645 102.978 78.0229 102.942 78.1765 102.916L78.264 103.552C78.1787 103.564 78.0885 103.585 77.9934 103.616C77.2616 103.857 76.865 104.352 77.2451 105.508L77.8492 107.272L78.6175 107.019C79.1736 106.837 79.4484 106.341 79.4472 105.474L79.4887 102.492L80.1253 102.283L80.0217 105.544C80.0001 106.638 79.5271 107.345 78.6783 107.624L77.4271 108.035C77.1524 107.298 76.8539 106.44 76.6062 105.686C76.1996 104.449 76.4205 103.469 77.6766 103.048ZM79.9518 104.789L81.6638 106.642L81.0272 106.852L79.7228 105.375L79.9518 104.789ZM67.9081 105.665L68.6573 105.523L71.2011 107.777C71.6961 107.534 71.8935 107.128 71.786 106.56L71.4877 104.986L72.1385 104.863L72.4339 106.422C72.5874 107.232 72.3693 107.736 71.6083 108.146L72.9933 109.373L72.999 109.404L72.28 109.54L69.9846 107.521C69.3868 107.924 69.2802 108.313 69.3705 108.79L69.6086 110.046L68.9578 110.169L68.7125 108.875C68.5763 108.156 68.8095 107.65 69.5879 107.165L67.9138 105.695L67.9081 105.665Z" fill="white"/>
</svg>
