<svg preserveAspectRatio="none" width="100%" height="100%" overflow="visible" style="display: block;" viewBox="0 0 157 27" fill="none" xmlns="http://www.w3.org/2000/svg">
<g id="Group 5">
<path id="Star 1" d="M15 0L18.3677 9.32827H29.2658L20.4491 15.0935L23.8168 24.4217L15 18.6565L6.18322 24.4217L9.55093 15.0935L0.734152 9.32827H11.6323L15 0Z" fill="var(--fill-0, #F3BB37)"/>
<path id="Star 2" d="M47 0L50.3677 9.32827H61.2658L52.4491 15.0935L55.8168 24.4217L47 18.6565L38.1832 24.4217L41.5509 15.0935L32.7342 9.32827H43.6323L47 0Z" fill="var(--fill-0, #F3BB37)"/>
<path id="Star 3" d="M78.5 0L81.98 9.32827H93.2414L84.1307 15.0935L87.6107 24.4217L78.5 18.6565L69.3893 24.4217L72.8693 15.0935L63.7586 9.32827H75.02L78.5 0Z" fill="var(--fill-0, #F3BB37)"/>
<path id="Star 4" d="M110 0L113.368 9.32827H124.266L115.449 15.0935L118.817 24.4217L110 18.6565L101.183 24.4217L104.551 15.0935L95.7342 9.32827H106.632L110 0Z" fill="var(--fill-0, #F3BB37)"/>
<path id="Star 5" d="M142 0L145.368 9.32827H156.266L147.449 15.0935L150.817 24.4217L142 18.6565L133.183 24.4217L136.551 15.0935L127.734 9.32827H138.632L142 0Z" fill="var(--fill-0, #F3BB37)"/>
</g>
</svg>
