<svg preserveAspectRatio="none" width="100%" height="100%" overflow="visible" style="display: block;" viewBox="0 0 216.659 184.8" fill="none" xmlns="http://www.w3.org/2000/svg">
<g id="01">
<path id="Vector" d="M216.659 179H169.503V57.7104L131.929 73.1161H130.164L129.659 34.235L216.659 0V179Z" fill="var(--fill-0, #7F5268)" fill-opacity="0.3"/>
<path id="Vector_2" d="M62.1304 148.291C77.7195 148.291 84.2715 140.695 84.2715 122.318V63.2662C84.2715 45.8693 77.9455 37.2933 62.1304 37.2933C46.3154 37.2933 39.9894 45.8693 39.9894 63.2662V122.318C39.9894 140.695 46.5414 148.291 62.1304 148.291ZM62.1304 184.8C25.304 184.8 0 165.443 0 119.132V66.4516C0 20.8765 25.304 1.0293 62.1304 1.0293C98.9569 1.0293 124.261 20.8765 124.261 66.4516V119.132C124.261 165.443 98.9569 184.8 62.1304 184.8Z" fill="var(--fill-0, #7F5268)" fill-opacity="0.3"/>
</g>
</svg>
