<svg width="22" height="20" viewBox="0 0 22 20" fill="none" xmlns="http://www.w3.org/2000/svg">
<path d="M8.92773 14C9.42773 14.3 10.1277 14.5 10.9277 14.5C11.7277 14.5 12.4277 14.3 12.9277 14M13.9277 10H13.9377" stroke="#7F5268" stroke-width="2" stroke-linecap="round" stroke-linejoin="round"/>
<path d="M18.3082 4.813C19.0093 5.8324 19.4927 6.9854 19.7282 8.2C20.0664 8.36377 20.3515 8.61948 20.5511 8.93782C20.7506 9.25617 20.8564 9.62429 20.8564 10C20.8564 10.3757 20.7506 10.7438 20.5511 11.0622C20.3515 11.3805 20.0664 11.6362 19.7282 11.8C19.2965 13.8135 18.1874 15.618 16.5859 16.9125C14.9844 18.207 12.9875 18.9132 10.9282 18.9132C8.86898 18.9132 6.87201 18.207 5.27053 16.9125C3.66905 15.618 2.55993 13.8135 2.12822 11.8C1.79008 11.6362 1.5049 11.3805 1.30537 11.0622C1.10583 10.7438 1 10.3757 1 10C1 9.62429 1.10583 9.25617 1.30537 8.93782C1.5049 8.61948 1.79008 8.36377 2.12822 8.2C2.54249 6.1705 3.64411 4.34602 5.24725 3.03437C6.85038 1.72271 8.85688 1.00418 10.9282 1C12.9282 1 14.4282 2.1 14.4282 3.5C14.4282 4.9 13.5282 6 12.4282 6C11.6282 6 10.9282 5.6 10.9282 5M7.92822 10H7.93822" stroke="#7F5268" stroke-width="2" stroke-linecap="round" stroke-linejoin="round"/>
</svg>
