<svg width="15" height="14" viewBox="0 0 15 14" fill="none" xmlns="http://www.w3.org/2000/svg">
<path fill-rule="evenodd" clip-rule="evenodd" d="M2 12.5C1.86739 12.5 1.74021 12.4473 1.64645 12.3536C1.55268 12.2598 1.5 12.1326 1.5 12V2C1.5 1.86739 1.55268 1.74021 1.64645 1.64645C1.74021 1.55268 1.86739 1.5 2 1.5H11.25C11.4489 1.5 11.6397 1.42098 11.7803 1.28033C11.921 1.13968 12 0.948912 12 0.75C12 0.551088 11.921 0.360322 11.7803 0.21967C11.6397 0.0790177 11.4489 2.96403e-09 11.25 0H2C1.46957 0 0.960859 0.210714 0.585786 0.585786C0.210714 0.960859 0 1.46957 0 2V12C0 12.5304 0.210714 13.0391 0.585786 13.4142C0.960859 13.7893 1.46957 14 2 14H12C12.5304 14 13.0391 13.7893 13.4142 13.4142C13.7893 13.0391 14 12.5304 14 12V8.75C14 8.55109 13.921 8.36032 13.7803 8.21967C13.6397 8.07902 13.4489 8 13.25 8C13.0511 8 12.8603 8.07902 12.7197 8.21967C12.579 8.36032 12.5 8.55109 12.5 8.75V12C12.5 12.1326 12.4473 12.2598 12.3536 12.3536C12.2598 12.4473 12.1326 12.5 12 12.5H2ZM14.78 3.68C14.9125 3.53782 14.9846 3.34978 14.9812 3.15548C14.9777 2.96118 14.899 2.77579 14.7616 2.63838C14.6242 2.50097 14.4388 2.42225 14.2445 2.41882C14.0502 2.4154 13.8622 2.48752 13.72 2.62L8.162 8.177L6.289 6.241C6.22066 6.1696 6.13889 6.1124 6.04837 6.07271C5.95786 6.03301 5.86039 6.0116 5.76157 6.0097C5.66276 6.0078 5.56454 6.02545 5.47257 6.06163C5.38059 6.09782 5.29668 6.15183 5.22565 6.22055C5.15462 6.28928 5.09787 6.37136 5.05867 6.46209C5.01947 6.55282 4.99859 6.6504 4.99723 6.74923C4.99586 6.84806 5.01405 6.94618 5.05074 7.03795C5.08742 7.12973 5.14189 7.21335 5.211 7.284L7.614 9.768C7.68314 9.83971 7.76587 9.89693 7.85737 9.93631C7.94887 9.9757 8.04729 9.99646 8.1469 9.9974C8.24651 9.99833 8.34531 9.97941 8.43752 9.94174C8.52974 9.90407 8.61353 9.84841 8.684 9.778L14.78 3.68Z" fill="#7F5268"/>
</svg>
