<svg width="42" height="70" viewBox="0 0 42 70" fill="none" xmlns="http://www.w3.org/2000/svg">
<path d="M11.0585 4.81199C14.39 2.11783 17.8689 -0.451864 22.4546 0.0673262C25.2921 0.388654 27.6954 2.12086 29.4669 4.28453C30.081 5.03494 30.5617 5.90239 31.1404 6.67966C32.6753 8.41728 33.8292 9.22376 33.4795 11.8553C33.1374 14.437 31.5484 16.1904 29.9112 18.0548C30.5355 16.8145 30.827 15.6457 31.3668 14.3988C30.261 15.9439 28.5301 17.3475 26.8118 18.1497C26.5128 18.9666 26.3599 19.759 26.3024 20.6274C26.1774 22.5279 24.9762 22.4012 23.5232 22.3202C18.6114 25.7156 20.1467 25.7628 16.6932 21.0505C15.3554 22.1632 14.3388 23.2612 14.1644 25.1167C13.9691 27.1955 15.6042 29.7912 16.9129 31.3108C18.1074 32.6976 19.4361 33.9363 20.8048 35.1481C21.5575 35.8148 23.1042 36.8387 23.6305 37.6038C23.9481 38.0741 24.0934 38.6401 24.0402 39.2052C23.9768 39.9425 23.6567 40.5889 23.296 41.2197C24.003 40.6521 25.1342 40.0458 25.9502 39.5787L29.7744 37.4019C28.3324 36.71 26.7417 36.2414 26.2095 34.6113L26.8372 33.6309C26.8 33.4137 26.6691 32.8389 26.8144 32.7084C28.1955 31.4652 28.0595 30.741 28.3392 28.9875C28.6306 27.1626 31.1809 26.1408 32.791 25.9368C34.4476 25.7015 36.2325 26.1142 37.6129 27.0971C38.5843 27.7896 39.0278 29.2852 39.1621 30.4392C39.3843 32.342 38.8217 34.2531 37.6044 35.7327C36.671 36.8872 35.4613 37.8183 34.1451 38.4963C34.6419 40.5462 34.5042 41.8943 33.3975 43.7263C31.8542 46.2809 28.6678 48.5089 25.9409 49.6875C29.842 49.2619 32.7006 48.0662 35.3447 44.9471C35.6176 44.6255 35.8989 44.1975 36.1641 43.8943C35.3861 41.3802 36.9523 37.89 38.9467 36.238C40.0289 35.3411 40.1911 31.7313 40.7418 31.3607C42.4102 30.8902 42.0056 33.4946 41.8138 34.4531C41.3889 35.9558 40.8339 37.4646 40.2983 38.9398C39.631 40.7779 39.5465 43.1678 38.6823 44.862C35.2898 51.5101 27.5172 55.851 21.0058 58.8515C17.6005 60.4205 14.5801 61.3469 11.5508 63.633C8.88286 65.5491 7.3275 67.1705 5.18217 69.6677C5.21832 69.2758 5.28235 68.5487 5.37773 68.1924C6.04272 65.7129 8.49402 63.2774 10.4435 61.6704C11.9683 60.4129 15.2987 58.029 17.0439 57.1997L16.7772 56.9759C14.2207 57.9014 11.5527 59.2518 8.93237 60.2331C10.1197 57.1904 10.3421 55.5487 8.87416 52.4781C7.9886 50.6256 6.90293 48.7015 5.79199 46.9773C2.03706 41.1495 -0.119935 35.5973 2.544 28.6888C3.18077 27.0102 4.05619 25.4321 5.14322 24.003C7.16295 21.3659 9.99456 18.8879 11.4307 15.7017C10.3237 16.7419 9.25607 17.5504 7.76339 17.9737C5.71326 18.555 3.45811 18.18 1.96593 16.5758C1.80695 16.4022 1.6581 16.2197 1.52033 16.0289C3.74811 16.9177 4.73639 16.4096 7.03944 15.9884C3.78536 15.6751 0.949188 15.0628 2.26692 10.639C2.58066 9.58562 3.15949 8.9949 2.9592 7.77335C2.7709 4.70846 5.54777 3.33093 8.26188 3.75039C9.1667 3.8861 10.363 4.13978 11.0585 4.81199Z" fill="#7E5466"/>
<path d="M22.7053 59.1463C22.745 59.1272 22.7806 59.1175 22.8105 59.1217C22.8416 59.1261 22.8648 59.1446 22.8791 59.1743C22.8929 59.2031 22.8903 59.2453 22.8776 59.2975C22.8647 59.3505 22.8402 59.4175 22.8041 59.4986C22.6809 59.932 22.6321 60.578 22.6558 61.4334L22.6549 61.4338C22.6544 61.8592 22.5932 62.3143 22.4727 62.802C22.4157 63.0308 22.3573 63.211 22.2965 63.3417C22.2361 63.4716 22.1721 63.5563 22.1035 63.5894L22.1 63.5911L22.0996 63.5902C22.0688 63.5963 22.0412 63.5933 22.0185 63.5815C21.9958 63.5698 21.9792 63.5495 21.9678 63.5257C21.9617 63.5127 21.9599 63.4952 21.9607 63.4749C21.9616 63.4541 21.9652 63.4286 21.9715 63.3982C21.9843 63.3373 22.0079 63.2552 22.0427 63.1517C22.0704 63.0117 22.1033 62.8111 22.1444 62.5426L22.1444 62.5405C22.1721 62.4307 22.1914 62.2442 22.1986 61.9814C22.2059 61.7189 22.2013 61.3812 22.1835 60.9691L22.1844 60.9687C22.1744 60.4512 22.2095 60.0419 22.291 59.7408C22.3725 59.4401 22.5007 59.2446 22.678 59.1594L22.7053 59.1463ZM25.6768 61.1139C25.6867 61.1346 25.6802 61.1597 25.6666 61.1849C25.6525 61.2108 25.6289 61.2415 25.5957 61.2764C25.5287 61.3468 25.4214 61.438 25.2747 61.5509L25.2729 61.5518C25.1572 61.6233 24.9973 61.716 24.7933 61.8299L24.7925 61.8303C24.5508 61.9464 24.1951 61.9781 23.7274 61.9272L23.7239 61.9267C23.433 61.8365 23.2419 61.6858 23.1404 61.4746C23.0917 61.3732 23.0906 61.2336 23.133 61.0578C23.1755 60.8817 23.2624 60.6666 23.393 60.4128L23.3934 60.4115C23.5653 60.1594 23.7264 59.9805 23.8741 59.8718L23.9894 59.7849C24.0327 59.7567 24.0813 59.7289 24.1371 59.7021L24.2092 59.6674C24.3394 59.6048 24.4741 59.5673 24.6142 59.5519L24.7567 59.5441L24.762 59.5437L24.7615 59.545C24.8529 59.5784 24.9274 59.6137 24.9839 59.6516C25.0404 59.6894 25.0804 59.7307 25.1016 59.7749C25.119 59.8111 25.1108 59.8467 25.0865 59.8764L25.0816 59.882L25.0812 59.8811L25.0178 59.9116L25.0109 59.9062C24.8616 59.7998 24.6773 59.7989 24.4479 59.9092C24.1639 60.0456 23.9215 60.2864 23.708 60.6309L23.7093 60.6314C23.5702 60.9191 23.5502 61.1526 23.6363 61.3317C23.7541 61.5769 24.0212 61.6824 24.4499 61.645L24.449 61.6454C24.5949 61.6225 24.7407 61.5822 24.8877 61.5235L25.0359 61.4576C25.2719 61.2864 25.4386 61.1796 25.5337 61.1339L25.5777 61.1128C25.6125 61.0961 25.6454 61.091 25.6713 61.1068L25.6795 61.1126L25.6768 61.1139Z" fill="#7F5268" stroke="white" stroke-width="0.03"/>
<path d="M17.7257 62.7689C17.7508 62.6751 17.7945 62.6145 17.8658 62.5802L17.9045 62.5616C17.9532 62.5382 18.0072 62.5513 18.0626 62.5929C18.0902 62.6136 18.1187 62.642 18.1486 62.6772L18.2427 62.8054L18.2927 62.8756C18.4191 63.0325 18.6188 63.1396 18.8923 63.1921C19.2015 63.2589 19.4609 63.2384 19.6728 63.1366C19.979 62.9894 20.195 62.7542 20.3136 62.4408C20.4323 62.127 20.4409 61.7929 20.3366 61.4493L20.1495 60.8187C20.1384 60.78 20.1423 60.7438 20.1642 60.7119C20.1854 60.6813 20.2225 60.6565 20.2733 60.6345C20.3298 60.6018 20.3843 60.5961 20.4347 60.6231C20.4592 60.6363 20.4821 60.6571 20.5032 60.6844L20.5627 60.788C20.8114 61.4335 20.8453 61.9735 20.6658 62.4027C20.4871 62.8298 20.2057 63.1462 19.8268 63.3443C19.4496 63.5415 19.1186 63.6 18.8352 63.5153C18.5654 63.4345 18.371 63.3394 18.2579 63.2293C18.2567 63.2311 18.2547 63.2333 18.2534 63.2358C18.2493 63.2438 18.2458 63.2547 18.242 63.2683C18.2344 63.296 18.2278 63.3343 18.2236 63.3834C18.2153 63.4818 18.2148 63.6219 18.2236 63.8027L18.2235 63.8049C18.2079 64.0773 18.1758 64.2912 18.127 64.4472C18.0782 64.6026 18.0118 64.704 17.9257 64.7454L17.9248 64.7458C17.8701 64.7668 17.8269 64.7795 17.7958 64.784C17.7804 64.7862 17.7658 64.7864 17.7548 64.7842C17.744 64.7819 17.7338 64.7764 17.7284 64.7654L17.714 64.7355C17.7112 64.7295 17.71 64.7224 17.71 64.7158C17.7101 64.7089 17.7107 64.7005 17.7125 64.6918C17.7162 64.6745 17.7239 64.6526 17.7341 64.6262C17.7543 64.574 17.7865 64.5021 17.8336 64.4116C17.916 63.9341 17.9218 63.521 17.8544 63.1697L17.854 63.1688C17.8474 63.1005 17.8052 62.9695 17.7273 62.7789L17.7222 62.7684L17.7257 62.7689Z" fill="#7F5268" stroke="white" stroke-width="0.03"/>
<path d="M13.6281 63.5083C13.6679 63.4892 13.7035 63.4795 13.7333 63.4837C13.7645 63.4881 13.7877 63.5066 13.802 63.5363C13.8158 63.5651 13.8132 63.6073 13.8005 63.6595C13.7875 63.7125 13.7631 63.7795 13.727 63.8606C13.6038 64.294 13.555 64.94 13.5787 65.7954L13.5778 65.7958C13.5772 66.2212 13.516 66.6763 13.3956 67.164C13.3385 67.3928 13.2802 67.573 13.2194 67.7037C13.1589 67.8336 13.0949 67.9183 13.0264 67.9514L13.0228 67.9531L13.0224 67.9522C12.9917 67.9583 12.9641 67.9553 12.9413 67.9435C12.9187 67.9318 12.9021 67.9115 12.8906 67.8877C12.8845 67.8747 12.8827 67.8572 12.8836 67.8369C12.8845 67.8161 12.888 67.7906 12.8944 67.7602C12.9072 67.6993 12.9308 67.6172 12.9655 67.5137C12.9933 67.3737 13.0262 67.1731 13.0672 66.9046L13.0673 66.9025C13.095 66.7927 13.1142 66.6062 13.1215 66.3434C13.1287 66.0809 13.1241 65.7432 13.1064 65.3311L13.1072 65.3307C13.0972 64.8132 13.1324 64.4039 13.2139 64.1028C13.2953 63.8021 13.4235 63.6066 13.6008 63.5214L13.6281 63.5083ZM16.5997 65.4759C16.6095 65.4966 16.6031 65.5217 16.5894 65.5469C16.5753 65.5728 16.5517 65.6035 16.5185 65.6384C16.4515 65.7088 16.3443 65.8 16.1975 65.9129L16.1958 65.9138C16.08 65.9853 15.9201 66.078 15.7162 66.1919L15.7153 66.1923C15.4737 66.3084 15.118 66.3401 14.6502 66.2892L14.6467 66.2887C14.3559 66.1985 14.1648 66.0478 14.0633 65.8366C14.0146 65.7352 14.0134 65.5956 14.0559 65.4198C14.0984 65.2437 14.1853 65.0286 14.3158 64.7748L14.3163 64.7735C14.4881 64.5214 14.6493 64.3425 14.7969 64.2338L14.9123 64.1469C14.9556 64.1187 15.0041 64.0909 15.0599 64.0641L15.1321 64.0294C15.2623 63.9668 15.3969 63.9293 15.5371 63.9139L15.6796 63.9061L15.6848 63.9057L15.6844 63.907C15.7757 63.9404 15.8502 63.9757 15.9068 64.0136C15.9633 64.0514 16.0033 64.0927 16.0245 64.1369C16.0418 64.1731 16.0336 64.2087 16.0094 64.2384L16.0045 64.244L16.0041 64.2431L15.9407 64.2736L15.9338 64.2682C15.7844 64.1618 15.6002 64.1609 15.3707 64.2712C15.0868 64.4076 14.8443 64.6484 14.6308 64.9929L14.6321 64.9934C14.4931 65.2811 14.473 65.5146 14.5591 65.6937C14.677 65.9389 14.944 66.0444 15.3727 66.007L15.3718 66.0074C15.5178 65.9845 15.6636 65.9442 15.8105 65.8855L15.9588 65.8196C16.1947 65.6484 16.3615 65.5416 16.4565 65.4959L16.5006 65.4748C16.5353 65.4581 16.5683 65.453 16.5941 65.4688L16.6023 65.4746L16.5997 65.4759Z" fill="#7F5268" stroke="white" stroke-width="0.03"/>
<path d="M8.53355 54.1994C8.75896 54.6241 8.86638 55.0358 8.85556 55.4349C8.84465 55.8341 8.71545 56.2197 8.47098 56.591L8.47057 56.5924C8.31089 56.8146 8.10092 56.9976 7.83863 57.1368C7.55911 57.2852 7.23639 57.2714 6.8754 57.1032L6.87494 57.1023C6.59846 56.9605 6.39125 56.7493 6.2527 56.4884C6.11935 56.2372 6.05565 55.9169 6.05802 55.5115C6.06021 55.3588 6.11941 55.0798 6.22813 54.6782L6.22767 54.6774C6.25702 54.5841 6.27724 54.512 6.28926 54.4622C6.29527 54.4373 6.29972 54.4181 6.30183 54.4047C6.30286 54.3981 6.30261 54.3931 6.30278 54.3898L6.30272 54.3876L6.28486 54.354C6.28276 54.3501 6.27672 54.3443 6.25921 54.3411C6.24187 54.338 6.21651 54.3379 6.18407 54.3412C6.11937 54.3477 6.02674 54.3676 5.9077 54.4017L5.9038 54.4026C5.86972 54.402 5.80174 54.409 5.69724 54.4238C5.59318 54.4386 5.45403 54.4609 5.27858 54.4891L5.27639 54.4892C5.0513 54.4851 4.894 54.4421 4.81094 54.3559L4.80692 54.3525L4.80778 54.3521L4.79176 54.3219C4.77085 54.2824 4.7625 54.2459 4.7699 54.2141C4.77757 54.1819 4.80112 54.1577 4.83536 54.1395C4.85348 54.13 4.8805 54.122 4.91559 54.1157C4.95113 54.1094 4.99603 54.1045 5.05022 54.1006C5.15859 54.0928 5.30528 54.0891 5.49078 54.0912C5.71707 54.0803 5.91467 54.0275 6.09068 53.9341L6.09241 53.9332C6.25139 53.8683 6.37715 53.8288 6.46964 53.8169C6.5606 53.8053 6.62712 53.8199 6.65491 53.8723C6.66344 53.8885 6.66641 53.9119 6.6653 53.9397C6.66413 53.9681 6.65883 54.0034 6.64953 54.0454C6.63083 54.1298 6.59585 54.2435 6.5425 54.3853L6.46321 54.6982C6.39474 54.9993 6.35683 55.2662 6.34952 55.4983C6.33982 55.8078 6.38436 56.0553 6.48346 56.2421L6.52376 56.318C6.65555 56.5662 6.88672 56.7309 7.21233 56.8214C7.51947 56.8318 7.73752 56.7993 7.87105 56.7293L8.0198 56.5951C8.34443 56.2665 8.51028 55.8298 8.52025 55.2823L8.5198 55.2814C8.38034 54.6895 8.25628 54.2917 8.15271 54.0965C8.05709 53.9164 7.91324 53.7545 7.73558 53.6169C7.72416 53.6081 7.71004 53.5937 7.69822 53.5715L7.68448 53.5457C7.6756 53.5288 7.67077 53.5109 7.67447 53.4935C7.67831 53.4754 7.69033 53.4608 7.70924 53.4507L7.71873 53.4457C7.75398 53.4271 7.79507 53.4265 7.84006 53.441C7.88496 53.4555 7.93509 53.4856 7.98989 53.5295C8.09971 53.6175 8.23262 53.7648 8.38767 53.9684L8.38813 53.9693C8.43235 54.0304 8.48205 54.1024 8.53355 54.1994Z" fill="#7F5268" stroke="white" stroke-width="0.03"/>
<path d="M6.8761 50.9007C7.03389 51.1198 7.10848 51.3827 7.09307 51.6988L7.07762 51.8176C7.01287 52.0933 6.75533 52.3563 6.31407 52.6077L6.31321 52.6082C5.89506 52.8302 5.50539 52.8997 5.14296 52.8094L5.14337 52.808C4.66235 52.7437 4.33546 52.5567 4.17119 52.2473C4.00119 51.9267 4.0523 51.5051 4.32481 50.9893L4.32607 50.9875L4.33852 50.9964L4.32694 50.987C4.47817 50.7877 4.73796 50.6504 5.11225 50.569C5.46218 50.4902 5.84977 50.4954 6.27821 50.568C6.15594 50.4546 6.03556 50.356 5.91319 50.272L5.78093 50.1874C5.60397 50.0742 5.47045 50.0097 5.38053 49.981L5.36687 49.9761L5.37204 49.9733L5.367 49.9638C5.36191 49.9542 5.36234 49.9437 5.36631 49.9355C5.37006 49.9277 5.37705 49.922 5.38381 49.9184L5.42003 49.8992C5.446 49.8854 5.48007 49.883 5.52029 49.8902C5.56081 49.8975 5.60962 49.9142 5.66611 49.9399C5.77931 49.9914 5.92688 50.0801 6.10771 50.2052C6.46187 50.4526 6.72118 50.6871 6.87565 50.8999L6.8761 50.9007ZM6.68929 51.0862C6.62952 50.9736 6.55309 50.8587 6.45291 50.7451C6.44989 50.7588 6.44563 50.7713 6.43854 50.7825C6.426 50.8025 6.40758 50.8178 6.38336 50.8306L6.36956 50.838C6.3572 50.8445 6.3367 50.8477 6.31129 50.849C6.28491 50.8504 6.25015 50.8499 6.20772 50.8476L5.85295 50.8104C5.54917 50.7727 5.23475 50.8368 4.90335 51.0127C4.73204 51.1037 4.60905 51.222 4.53366 51.366C4.45863 51.5096 4.43005 51.6802 4.44831 51.8779C4.4682 51.9698 4.48582 52.0229 4.49556 52.0419C4.58317 52.1854 4.75143 52.3198 5.00742 52.4291C5.42266 52.5554 5.81485 52.5201 6.18093 52.3257C6.50329 52.1546 6.69103 51.9458 6.73748 51.6996C6.78919 51.4467 6.77046 51.2391 6.68929 51.0862Z" fill="#7F5268" stroke="white" stroke-width="0.03"/>
<path d="M5.54961 47.8823C5.6155 48.0064 5.63918 48.1321 5.6191 48.2589C5.59903 48.3854 5.53589 48.5116 5.43043 48.6366C5.21913 48.8869 4.80915 49.045 4.20193 49.1174C4.18633 49.2161 4.13268 49.3339 4.04105 49.4704C3.94854 49.6127 3.77395 49.7447 3.52986 49.8612C3.27854 49.9746 2.9482 49.9441 2.53859 49.7706L2.53594 49.7697C2.471 49.7277 2.41952 49.6901 2.38163 49.6582C2.3443 49.6267 2.318 49.599 2.30665 49.5753C2.30097 49.5633 2.29843 49.5504 2.30137 49.5383C2.30442 49.5258 2.3128 49.5162 2.32383 49.5098C2.34502 49.4975 2.38028 49.4929 2.42479 49.4937L2.43484 49.4939L2.4243 49.5095L2.43317 49.497C2.51424 49.554 2.65816 49.599 2.87192 49.6279C3.03442 49.6475 3.17591 49.6349 3.29742 49.5921L3.4119 49.5391C3.5537 49.4511 3.66086 49.3184 3.74233 49.1348L3.77702 49.0169L3.53496 48.89L3.53318 48.8887C3.4013 48.7955 3.30362 48.702 3.24822 48.5977C3.18916 48.4865 3.16534 48.3739 3.17751 48.2604C3.1897 48.1471 3.23734 48.0335 3.31993 47.9206L3.32206 47.9183C3.34973 47.894 3.37289 47.8739 3.39179 47.8581C3.41058 47.8424 3.42648 47.8297 3.43942 47.8229C3.51364 47.7835 3.59159 47.7767 3.67258 47.7997C3.75328 47.8226 3.8373 47.875 3.92361 47.9539C4.09941 48.1172 4.20027 48.3961 4.22489 48.7879C4.30751 48.8058 4.41092 48.8001 4.53502 48.7681C4.66421 48.7348 4.81479 48.6738 4.98665 48.5858C5.15726 48.4984 5.25635 48.3913 5.28814 48.2665C5.31972 48.1421 5.28574 47.9961 5.18218 47.8275L5.10633 47.745C4.92127 47.5631 4.68994 47.4432 4.41032 47.3837C4.39437 47.3821 4.38199 47.382 4.3727 47.3815C4.36831 47.3813 4.36507 47.3811 4.36265 47.3813C4.36107 47.3815 4.36004 47.3817 4.3596 47.3819L4.3458 47.3892L4.32519 47.3504C4.31313 47.3276 4.3094 47.3044 4.31435 47.282C4.31934 47.2598 4.33275 47.2396 4.3522 47.2221L4.35819 47.2168L4.35956 47.2193C4.51296 47.1784 4.70247 47.2107 4.91148 47.3155C5.1281 47.4231 5.3021 47.56 5.44678 47.7323L5.44723 47.7332L5.54869 47.8805L5.54961 47.8823ZM3.74834 48.3256C3.68786 48.2391 3.63453 48.1812 3.58851 48.1495C3.5428 48.118 3.50576 48.1138 3.4736 48.1309L3.47273 48.1313C3.45868 48.1374 3.4479 48.1465 3.44063 48.1583C3.43338 48.1702 3.4293 48.1859 3.42825 48.2058C3.42624 48.2466 3.43919 48.3037 3.46957 48.3774C3.52702 48.5165 3.64632 48.6116 3.84206 48.6749C3.84778 48.5735 3.81728 48.4575 3.74747 48.326L3.74834 48.3256Z" fill="#7F5268" stroke="white" stroke-width="0.03"/>
<path d="M0.553797 46.7874C1.08676 47.0544 1.51667 47.1004 1.85873 46.9315C2.19834 46.764 2.41725 46.5003 2.51017 46.1301C2.5807 45.8802 2.57304 45.6738 2.4895 45.5164C2.39802 45.3443 2.21994 45.2227 1.94365 45.1505L1.93705 45.1485L1.93791 45.1481L1.9183 45.1319L1.91072 45.126L1.91418 45.1242C1.90778 45.1056 1.90599 45.0882 1.91117 45.0727C1.91649 45.057 1.92776 45.0451 1.9422 45.0374L1.956 45.0301C2.09353 44.9572 2.25672 44.958 2.44628 45.0352L2.57399 45.0945C2.69087 45.1584 2.77362 45.2373 2.82171 45.3279L2.85651 45.3934C3.02333 45.7077 3.01202 46.1011 2.82632 46.5715L2.82592 46.5728L2.82506 46.5733C2.66341 46.8821 2.41072 47.1078 2.06118 47.2608C1.71584 47.4114 1.38874 47.4345 1.08679 47.3248C0.789267 47.2166 0.582988 47.1088 0.475643 46.9859C0.449136 46.9555 0.429763 46.9284 0.418178 46.9047C0.406742 46.8813 0.402013 46.8588 0.408709 46.839C0.415636 46.8185 0.433205 46.805 0.456179 46.7972C0.479062 46.7895 0.509642 46.7866 0.54679 46.7867L0.554201 46.786L0.553797 46.7874Z" fill="#7F5268" stroke="white" stroke-width="0.03"/>
</svg>
